<?xml version="1.0" encoding="utf-8"?>
<svg version="1.1" id="Layer_1" xmlns="http://www.w3.org/2000/svg" xmlns:xlink="http://www.w3.org/1999/xlink" x="0px" y="0px"
	 viewBox="0 0 1280 640" style="enable-background:new 0 0 1280 640;" xml:space="preserve">
<style type="text/css">
	.st0{fill:#FFA4A4;}
	
		.st1{opacity:0.47;fill:none;stroke:#000000;stroke-width:0.916;stroke-linecap:round;stroke-miterlimit:10;enable-background:new    ;}
	.st2{fill:none;}
	.st3{fill:#F2B200;}
	.st4{fill:#FFCE31;}
	.st5{fill:#BC845E;}
	.st6{fill:#916140;}
	.st7{fill:#CE9C7A;}
</style>
<g>
	<g>
		<g>
			<path d="M270.7,162c-5.9,2-8.7,7.5-7.5,13.6c2.2,10.4,3.4,18,4.3,28.6c0.8,10,1,20,0.6,30c-0.4,9.6-1,17.3-2.8,26.4
				c-0.4,2-0.9,4-1.4,6c-0.3,1-0.6,1.9-0.9,2.9c0,0.1-0.7,1.9-0.7,1.9c-0.7,1.6-1.4,3.1-2.3,4.6c-0.5,0.9-1,1.7-1.5,2.5
				c-0.1,0.1-0.1,0.1-0.1,0.2c-0.4,0.5-0.8,1-1.2,1.4c-0.4,0.5-0.9,1-1.4,1.4c-0.1,0.1-1.4,1.3-1.4,1.4c-1.2,0.9-2.6,1.7-3.9,2.4
				c0.3-0.2-1.6,0.7-1.9,0.8c-1,0.3-2,0.6-3,0.9c-0.2,0-2.3,0.4-2,0.4c-1.1,0.1-2.2,0.2-3.4,0.2c-1.1,0-2.1,0-3.2-0.1
				c-0.3,0-0.5,0-0.7,0s-0.4-0.1-0.7-0.1c-2.1-0.4-4.1-0.9-6.1-1.6c-0.2-0.1-0.4-0.1-0.6-0.2c-0.1-0.1-0.3-0.2-0.6-0.3
				c-0.9-0.5-1.8-0.9-2.7-1.4s-1.8-1-2.6-1.5c-0.5-0.3-1.1-0.7-1.6-1c-0.1-0.1-0.2-0.1-0.3-0.2c-2.7-2.2-5.2-4.6-7.5-7.3
				c-0.2-0.3-1.1-1.5-1.2-1.6c-0.6-0.8-1.2-1.7-1.7-2.5c-1.5-2.2-2.8-4.5-3.9-6.9c0.1,0.1-1-2.3-1-2.2c-0.4-1-0.8-2-1.1-2.9
				c-0.8-2.3-1.6-4.6-2.2-7c-1.2-4.4-2.5-10.8-2.9-13.8c-1.3-10.5-1.8-21-1.1-31.5c0.1-1.2,0.2-2.3,0.3-3.5c0-0.4,0.3-3.1,0.3-3.2
				c0.3-2.6,0.7-5.2,1.2-7.9c1-5.4,2.2-10.7,3.7-15.9c1.6-5.5-2.3-12.1-7.9-13.3c-6-1.2-11.6,2.1-13.3,7.9
				c-5.9,20.9-7.9,43.2-5.4,64.8c2.6,22.2,9.3,45.3,26.6,60.7c16.4,14.5,41.8,19.9,61,7.1c18.6-12.5,22.4-35.5,24.4-56.2
				c2.4-25.6,0.5-51.5-4.9-76.6C283,163.8,276,160.2,270.7,162z"/>
			<path d="M463.4,164.3c5.9,2,8.7,7.5,7.5,13.6c-2.2,10.4-3.4,18-4.3,28.6c-0.8,10-1,20-0.6,30c0.4,9.6,1,17.3,2.8,26.4
				c0.4,2,0.9,4,1.4,6c0.3,1,0.6,1.9,0.9,2.9c0,0.1,0.7,1.9,0.7,1.9c0.7,1.6,1.4,3.1,2.3,4.6c0.5,0.9,1,1.7,1.5,2.5
				c0.1,0.1,0.1,0.1,0.1,0.2c0.4,0.5,0.8,1,1.2,1.4c0.4,0.5,0.9,1,1.4,1.4c0.1,0.1,1.4,1.3,1.4,1.4c1.2,0.9,2.6,1.7,3.9,2.4
				c-0.3-0.2,1.6,0.7,1.9,0.8c1,0.3,2,0.6,3,0.9c0.2,0,2.3,0.4,2,0.4c1.1,0.1,2.2,0.2,3.4,0.2c1.1,0,2.1,0,3.2-0.1
				c0.3,0,0.5,0,0.7,0s0.4-0.1,0.7-0.1c2.1-0.4,4.1-0.9,6.1-1.6c0.2-0.1,0.4-0.1,0.6-0.2c0.1-0.1,0.3-0.2,0.6-0.3
				c0.9-0.5,1.8-0.9,2.7-1.4c0.9-0.5,1.8-1,2.6-1.5c0.5-0.3,1.1-0.7,1.6-1c0.1-0.1,0.2-0.1,0.3-0.2c2.7-2.2,5.2-4.6,7.5-7.3
				c0.2-0.3,1.1-1.5,1.2-1.6c0.6-0.8,1.2-1.7,1.7-2.5c1.5-2.2,2.8-4.5,3.9-6.9c-0.1,0.1,1-2.3,1-2.2c0.4-1,0.8-2,1.1-2.9
				c0.8-2.3,1.6-4.6,2.2-7c1.2-4.4,2.5-10.8,2.9-13.8c1.3-10.5,1.8-21,1.1-31.5c-0.1-1.2-0.2-2.3-0.3-3.5c0-0.4-0.3-3.1-0.3-3.2
				c-0.3-2.6-0.7-5.2-1.2-7.9c-1-5.4-2.2-10.7-3.7-15.9c-1.6-5.5,2.3-12.1,7.9-13.3c6-1.2,11.6,2.1,13.3,7.9
				c5.9,20.9,7.9,43.2,5.4,64.8c-2.6,22.2-9.3,45.3-26.6,60.7c-16.4,14.5-41.8,19.9-61,7.1c-18.6-12.5-22.4-35.5-24.4-56.2
				c-2.4-25.6-0.5-51.5,4.9-76.6C451,166.1,458,162.5,463.4,164.3z"/>
			<path d="M412.2,277.2c-5.6-1-12,1.9-13.3,7.9c-1.1,5.5,1.9,12.2,7.9,13.3c0.6,0.1,1.2,0.3,1.9,0.4c-0.8-0.2,0.9,0.5,1.3,0.7
				c0.1,0.1,0.2,0.1,0.3,0.2c0.1,0.1,0.2,0.2,0.3,0.4c0.1,0.1,0.6,0.7,0.9,1c0.3,0.4,0.6,0.9,0.7,1c0.3,0.4,0.5,1,0.6,1.2
				c0.2,0.6,0.4,1.3,0.6,1.9c-0.8-2,0-0.2,0,0.8c0,0.1,0,0.9,0,1.4c-0.1,0.5-0.3,1.8-0.4,2c-0.1,0.5-0.3,1-0.5,1.5
				c-0.1,0.1-0.7,1.4-0.9,1.7c-0.4,0.7-0.8,1.3-1.2,1.9c0,0-0.9,1.1-1.2,1.4c-0.6,0.6-1.2,1.2-1.8,1.8l-0.1,0.1
				c-0.4,0.3-0.8,0.6-1.2,0.8c-0.8,0.5-1.6,1-2.4,1.5c0,0-2.1,1-1.9,1c-1.7,0.7-3.5,1.3-5.3,1.7c-1.1,0.3-2.2,0.5-3.3,0.7
				c-0.3,0.1-0.4,0.1-0.4,0.1c-0.1,0-0.3,0-0.5,0c-2.2,0.2-4.3,0.3-6.5,0.2c-0.4,0-0.6,0-0.8,0c-0.1,0-0.4-0.1-0.7-0.2
				c-0.9-0.2-1.8-0.4-2.6-0.6c-0.3-0.1-0.6-0.2-1-0.3c-0.1,0-0.2-0.1-0.4-0.2c-0.6-0.3-1.1-0.6-1.7-0.9c0.1,0-1.4-1.2-1.5-1.3
				c-0.2-0.2-0.4-0.3-0.5-0.4s-0.2-0.3-0.3-0.5c-0.2-0.3-0.6-1.4-0.8-1.7c-0.2-0.9-0.4-2-0.2-0.3c-0.6-5.7-4.8-11.2-11.1-10.8
				c-6.1,0.4-10.6,5-10.8,11.1c0,0.1,0,0.1,0,0.1c-0.2,0.3-0.3,0.8-0.3,1.2c-0.1,0.3-0.2,0.6-0.4,0.8c-0.2,0.3-0.3,0.5-0.4,0.6
				c-0.4,0.5-0.8,0.9-1.3,1.4c-0.6,0.4-1.3,0.8-1.9,1.2l-0.1,0.1c-0.6,0.2-1.3,0.4-1.9,0.6c-0.1,0-0.1,0-0.2,0.1
				c-0.6,0-1.3,0.1-1.9,0.1h-0.1c-0.8-0.2-1.6-0.4-2.4-0.6l0,0c-0.8-0.4-1.6-0.8-2.3-1.2c-0.1-0.1-0.2-0.1-0.3-0.2c0,0,0,0-0.1-0.1
				c-0.6-0.5-1.2-1-1.7-1.5c-0.1-0.1-0.5-0.5-0.8-0.8c-0.3-0.4-1-1.2-1-1.3c-0.4-0.6-0.8-1.3-1.2-2c-0.3-0.5-1-2.5-0.2-0.3
				c-0.3-0.7-0.5-1.4-0.8-2.2c-0.2-0.8-0.4-1.7-0.6-2.5c0-0.2-0.1-0.3-0.1-0.5c0-0.1,0-0.1,0-0.3c0.1-1.7-0.1-3.5,0-5.2
				c0-0.2,0-0.3,0-0.3c0-0.1,0.1-0.3,0.1-0.5c0.2-0.9,0.3-1.7,0.6-2.6c0.2-0.9,0.4-1.7,0.7-2.6c0-0.1,0.4-1.3,0.6-1.7
				c0.2-0.5,0.7-1.5,0.7-1.6c0.5-1,1-1.9,1.5-2.8c2.8-5,1-12.2-4.3-14.9c-5.3-2.6-11.9-1-14.9,4.3c-5.6,10.1-8.1,21.3-6.3,32.7
				c1.7,10.6,8.1,19.9,17.1,25.7c11.5,7.4,25.9,5.4,35.5-2.4c4.3,3.4,9.5,5.7,15.3,6.7c12.8,2.1,27.7-0.8,38.3-8.5
				c10.1-7.3,17.9-19.5,16.6-32.4C434,291.6,425.3,279.6,412.2,277.2z"/>
		</g>
		<g>
			<path class="st0" d="M263.5,336c-2.1-3.2-6-4.3-9.4-2.5c-4.2,2.3-8.4,4.7-12.6,7c0.1-1.4,0-2.9-0.2-4.3c-1-6.4-6.7-11-13.3-10.1
				c-6.1,0.8-10.8,5.6-15.4,9.3c-1,0.8-2,1.6-3,2.4c-0.1-2-0.1-4-0.2-5.9c-0.1-3.3-0.4-6.6-2.2-9.5c-2.2-3.3-6-5.2-10-5
				c-3.4,0.1-6.5,1.5-9.5,3s-5.9,3-8.9,4.5c-1.4,0.7-2.9,1.4-4.3,2.2c0.9-3.7,1.7-7.4,2.6-11.1c0.8-3.5-1.1-7.6-4.8-8.5
				c-3.5-0.8-7.6,1.1-8.5,4.8c-2,8.5-4,17.1-6,25.6c-1.4,6,4.7,10.5,10.1,7.8c4.9-2.5,9.9-5,14.8-7.5l7.4-3.7
				c1.2-0.6,2.5-1.2,3.7-1.9c0.6-0.3,1.2-0.6,1.8-0.9l0,0c0,1,0.1,2,0.1,3c0.2,5.6,0.4,11.3,0.5,16.9c0.1,2.8,1.7,5.2,4.2,6.3
				c2.7,1.2,5.3,0.4,7.5-1.4l11.7-9.3c1.9-1.5,3.9-3.1,5.8-4.6c0.5-0.4,1.1-0.9,1.6-1.3c0.1-0.1,0.1-0.1,0.2-0.1
				c0.1-0.1,0.2-0.1,0.3-0.2c-1.4,5-1.7,10.3,0.8,15c1.8,3.3,6.3,4.2,9.4,2.5c7.7-4.3,15.4-8.6,23.1-12.9
				C264.1,343.7,265.4,339.1,263.5,336z"/>
			<path class="st0" d="M478.6,336c2.1-3.2,6-4.3,9.4-2.5c4.2,2.3,8.4,4.7,12.6,7c-0.1-1.4,0-2.9,0.2-4.3c1-6.4,6.7-11,13.3-10.1
				c6.1,0.8,10.8,5.6,15.4,9.3c1,0.8,2,1.6,3,2.4c0.1-2,0.1-4,0.2-5.9c0.1-3.3,0.4-6.6,2.2-9.5c2.2-3.3,6-5.2,10-5
				c3.4,0.1,6.5,1.5,9.5,3s5.9,3,8.9,4.5c1.4,0.7,2.9,1.4,4.3,2.2c-0.9-3.7-1.7-7.4-2.6-11.1c-0.8-3.5,1.1-7.6,4.8-8.5
				c3.5-0.8,7.6,1.1,8.5,4.8c2,8.5,4,17.1,6,25.6c1.4,6-4.7,10.5-10.1,7.8c-4.9-2.5-9.9-5-14.8-7.5l-7.4-3.7
				c-1.2-0.6-2.5-1.2-3.7-1.9c-0.6-0.3-1.2-0.6-1.8-0.9l0,0c0,1-0.1,2-0.1,3c-0.2,5.6-0.4,11.3-0.5,16.9c-0.1,2.8-1.7,5.2-4.2,6.3
				c-2.7,1.2-5.3,0.4-7.5-1.4l-11.7-9.3c-1.9-1.5-3.9-3.1-5.8-4.6c-0.5-0.4-1.1-0.9-1.6-1.3c-0.1-0.1-0.1-0.1-0.2-0.1
				c-0.1-0.1-0.2-0.1-0.3-0.2c1.4,5,1.7,10.3-0.8,15c-1.8,3.3-6.3,4.2-9.4,2.5c-7.7-4.3-15.4-8.6-23.1-12.9
				C477.9,343.7,476.6,339.1,478.6,336z"/>
		</g>
	</g>
	<g>
		<path d="M694,282.5c-1.9,5.6-4.1,9.7-6.7,12.3c-2.6,2.6-9.1,4.8-19.6,6.8c-10.5,1.9-21.6,2.9-33.3,2.9c-18.3,0-27.5-6.3-27.5-18.8
			c0-3.5,1-10.2,2.9-19.9l16.8-84.7c1-4.9,1.5-8.4,1.5-10.5c0-2-0.7-3.8-2.1-5.4c7.6-2.9,13-4.3,16-4.3c3.6,0,5.3,2,5.3,6.1
			c0,1-0.9,6.1-2.8,15.2l-15,75.7c-2.2,10.9-3.3,18.4-3.3,22.7c0,7.2,8,10.8,23.9,10.8C664.3,291.2,679,288.3,694,282.5z"/>
		<path d="M784,248.6c-7.4,15.2-16.5,28.2-27.3,38.9c-10.8,10.7-20.2,16-28.2,16c-6.1,0-11-2.7-14.6-8.2c-3.7-5.4-5.5-12.7-5.5-21.7
			c0-18,5.5-33.8,16.4-47.5s23.5-20.5,37.9-20.5c8.7,0,18.1,2.7,28.2,8.1c1.5-5.3,7.6-8,18.3-8c0.7,0,1.8,0,3.4,0.1
			c-3.3,5-5.8,11.8-7.5,20.5l-1.5,7.3c-1.7,8.2-2.5,17.7-2.5,28.6c0,12.6,2.9,18.9,8.8,18.9c6.2,0,14.7-5.2,25.5-15.6
			s21.4-23.6,31.8-39.6l6.7,4.7c-10.6,19-22.8,34.8-36.5,47.5s-25.5,19-35.3,19c-12.4,0-18.6-10.4-18.6-31.1
			C783.5,261.7,783.7,255.9,784,248.6z M788.1,228c-12.1-7.9-22.1-11.8-30.2-11.8c-8.7,0-16.2,5.3-22.5,15.8
			c-6.3,10.6-9.5,23.1-9.5,37.6c0,11.6,3.8,17.4,11.4,17.4c8.2,0,24-18.1,47.3-54.2C784.8,232.4,786,230.8,788.1,228z"/>
		<path d="M878.5,270.4c20.4-43.2,38.8-64.8,55-64.8c12.7,0,19.1,12.7,19.1,38l0.2,10.4c0,12.1,0.6,20.4,1.9,25.1
			c1.2,4.6,3.5,6.9,6.8,6.9c4.9,0,10.6-3.9,16.9-11.8c6.3-7.9,16.6-23.7,30.8-47.5l7.2,4.2c-12.7,23.9-24,41.6-34,53.1
			c-10,11.6-19,17.3-26.9,17.3c-7.3,0-12.4-3.5-15.4-10.6s-4.4-19.3-4.4-36.8l-0.1-7.4c0-9.4-0.6-16.1-1.8-19.9
			c-1.2-3.8-3.3-5.7-6.3-5.7c-7.6,0-19.8,15.2-36.7,45.5c-4.1,7.4-6.8,12.2-8,14.3c-4.4,7.7-6.6,13.3-6.6,16.7c0,1.4,0.4,2.7,1.1,4
			c-3.3,1.4-6.2,2.1-8.5,2.1c-5.8,0-8.7-3.2-8.7-9.7c0-1.8,0.7-10.1,2.2-24.8l1.9-18.7c0.9-7.9,1.3-14.1,1.3-18.5
			c0-6.1-1.4-10.9-4.1-14.4c1.2-0.4,3.2-1.1,6-2.1c3.6-1.3,6.4-1.9,8.5-1.9c4.5,0,6.7,3.3,6.7,9.8c0,3.5-0.4,9.4-1.3,17.8
			c-0.2,1.8-0.3,3.6-0.5,5.3L878.5,270.4z"/>
		<path d="M1062.9,249.5c-5.6,11.5-13.7,21.6-24.2,30.3c-10.6,8.7-20.1,13-28.5,13c-6.3,0-11.4-2.1-15.4-6.4s-6-9.8-6-16.6
			c0-15.9,6-30.6,18.1-44c12.1-13.5,25.2-20.2,39.5-20.2c7.4,0,15.3,2.1,23.8,6.3c1.2-5.5,2.8-9,5-10.4s7.7-2.6,16.7-3.5
			c-4.5,9-8.8,30.5-12.9,64.5l-1.1,8.8c24.7-14.8,43.7-30,57.1-45.5l7.2,4.6c-12.7,16.5-34.3,34.5-65,54c-0.2,2.2-0.3,3.9-0.3,5
			c-0.9,14.4-2.4,25.1-4.6,31.9s-6.1,13.3-11.8,19.5c-11.2,12-24.7,18-40.7,18c-8.6,0-15.5-2-20.9-6.1s-8-9.3-8-15.7
			c0-6.3,2.3-11.8,6.9-16.5c4.6-4.7,13.3-10.5,26.1-17.3c8.5-4.4,20.4-11,35.8-19.8L1062.9,249.5z M1067.3,227
			c-7.5-7.9-15.7-11.9-24.7-11.9c-8.5,0-16.5,5.3-24.1,16c-7.5,10.7-11.3,22-11.3,34c0,8.5,3.1,12.8,9.4,12.8
			c6.1,0,14.2-5.1,24.3-15.2C1051.1,252.6,1059.9,240.7,1067.3,227z M1059.1,294.9c-3.3,2-10.1,5.9-20.3,11.6
			c-19.9,11.2-29.9,21.1-29.9,29.7c0,3.8,1.6,6.9,4.8,9.4s7.3,3.7,12.3,3.7C1048.1,349.2,1059.1,331.1,1059.1,294.9z"/>
	</g>
</g>
<line class="st1" x1="341.9" y1="416" x2="938.1" y2="416"/>
<rect x="217" y="496" class="st2" width="3" height="1"/>
<g>
	<g>
		<path d="M226.4,486.5c-0.7,0-1.3-0.2-1.7-0.6c-0.4-0.4-0.6-1-0.6-1.8v-33.2h-12.5c-0.7,0-1.2-0.2-1.6-0.6
			c-0.4-0.4-0.6-0.9-0.6-1.4c0-0.6,0.2-1.1,0.6-1.4c0.4-0.3,0.9-0.5,1.6-0.5h29.6c0.7,0,1.2,0.2,1.6,0.5c0.4,0.3,0.6,0.8,0.6,1.4
			s-0.2,1.1-0.6,1.5c-0.4,0.4-0.9,0.5-1.6,0.5h-12.5v33.2c0,0.7-0.2,1.3-0.6,1.8C227.8,486.3,227.2,486.5,226.4,486.5z"/>
		<path d="M249.6,486.5c-0.7,0-1.3-0.2-1.7-0.6c-0.4-0.4-0.6-1-0.6-1.7v-35.3c0-0.7,0.2-1.3,0.6-1.7c0.4-0.4,0.9-0.6,1.7-0.6
			c0.7,0,1.3,0.2,1.7,0.6c0.4,0.4,0.6,1,0.6,1.7v16.3h-0.7c0.8-2.1,2-3.8,3.8-4.9c1.8-1.1,3.8-1.6,6.1-1.6c2.1,0,3.9,0.4,5.4,1.2
			c1.4,0.8,2.5,2,3.2,3.5c0.7,1.6,1.1,3.6,1.1,6v14.9c0,0.7-0.2,1.3-0.6,1.7c-0.4,0.4-0.9,0.6-1.6,0.6c-0.7,0-1.3-0.2-1.7-0.6
			s-0.6-1-0.6-1.7v-14.6c0-2.5-0.5-4.4-1.5-5.5c-1-1.2-2.5-1.8-4.7-1.8c-2.5,0-4.5,0.8-5.9,2.3c-1.5,1.5-2.2,3.6-2.2,6.1v13.4
			C251.9,485.7,251.1,486.5,249.6,486.5z"/>
		<path d="M291.1,486.6c-2.9,0-5.3-0.6-7.4-1.7s-3.6-2.7-4.8-4.8c-1.1-2.1-1.7-4.6-1.7-7.4c0-2.8,0.6-5.3,1.7-7.4
			c1.1-2.1,2.6-3.7,4.6-4.9c1.9-1.2,4.2-1.8,6.8-1.8c1.8,0,3.4,0.3,4.9,0.9s2.7,1.5,3.7,2.6c1,1.1,1.8,2.5,2.3,4.2
			c0.5,1.6,0.8,3.5,0.8,5.5c0,0.6-0.2,1-0.5,1.3c-0.3,0.3-0.8,0.4-1.4,0.4h-19.3v-2.9H299l-0.9,0.7c0-2-0.3-3.7-0.9-5.1
			c-0.6-1.4-1.5-2.5-2.6-3.2c-1.1-0.7-2.5-1.1-4.3-1.1c-1.9,0-3.5,0.4-4.8,1.3c-1.3,0.9-2.3,2.1-3,3.6s-1,3.3-1,5.4v0.3
			c0,3.4,0.8,6,2.5,7.8c1.6,1.8,4,2.7,7,2.7c1.3,0,2.5-0.2,3.8-0.5c1.2-0.3,2.5-0.9,3.6-1.7c0.5-0.3,1-0.5,1.4-0.5
			c0.4,0,0.8,0.1,1,0.4c0.3,0.2,0.4,0.5,0.5,0.9c0.1,0.4,0.1,0.7-0.1,1.1c-0.2,0.4-0.5,0.8-1,1.1c-1.2,0.9-2.7,1.6-4.3,2.1
			C294.4,486.4,292.8,486.6,291.1,486.6z"/>
		<path d="M325.3,486.5c-0.6,0-1-0.2-1.3-0.6c-0.2-0.4-0.3-0.9-0.1-1.6l1.7-8.7l1.6,0.4h-4.7c-0.4,0-0.8-0.1-1.1-0.2
			c-0.3-0.1-0.5-0.3-0.7-0.6c-0.1-0.2-0.2-0.5-0.2-0.9c0-0.6,0.2-1,0.5-1.3c0.4-0.3,0.8-0.4,1.5-0.4h5.3l-1.8,0.4l2.7-13.8l1.3,0.6
			h-6.5c-0.4,0-0.8-0.1-1.1-0.2c-0.3-0.1-0.5-0.3-0.7-0.6c-0.1-0.3-0.2-0.6-0.2-0.9c0-0.6,0.2-1,0.5-1.2c0.4-0.3,0.8-0.4,1.5-0.4
			h7.1l-1.5,0.4l1.7-8.6c0.1-0.7,0.4-1.1,0.8-1.4c0.4-0.3,0.8-0.4,1.4-0.4s1,0.2,1.2,0.6c0.2,0.4,0.3,0.9,0.1,1.6l-1.5,7.9h8.8
			l1.6-8.2c0.1-0.7,0.4-1.1,0.8-1.4c0.4-0.3,0.8-0.4,1.3-0.4c0.6,0,1,0.2,1.2,0.6c0.2,0.4,0.3,0.9,0.2,1.6L345,457l-1.3-0.4h4.4
			c0.4,0,0.8,0.1,1.1,0.2c0.3,0.1,0.5,0.3,0.7,0.5c0.1,0.2,0.2,0.5,0.2,0.9c0,0.5-0.2,0.9-0.5,1.2c-0.3,0.3-0.8,0.4-1.5,0.4h-5.1
			l1.5-0.6l-2.7,13.8l-1.4-0.4h6.5c0.4,0,0.8,0.1,1.1,0.2c0.3,0.1,0.5,0.3,0.7,0.6c0.1,0.2,0.2,0.5,0.2,0.9c0,0.5-0.2,0.9-0.5,1.2
			c-0.3,0.3-0.8,0.4-1.5,0.4H340l1.5-0.4l-1.8,9.1c-0.1,0.7-0.3,1.1-0.7,1.4c-0.4,0.3-0.8,0.4-1.4,0.4s-1-0.2-1.2-0.6
			c-0.3-0.4-0.3-0.9-0.2-1.6l1.6-8.3H329l-1.7,8.7c-0.1,0.7-0.3,1.1-0.7,1.4C326.3,486.4,325.9,486.5,325.3,486.5z M329.6,472.7h8.8
			l2.6-12.8h-8.8L329.6,472.7z"/>
		<path d="M360.6,486.1c-0.7,0-1.2-0.2-1.6-0.5c-0.4-0.4-0.6-0.8-0.6-1.5c0-0.6,0.2-1.1,0.6-1.4c0.4-0.3,0.9-0.5,1.6-0.5h7.2v-31.5
			h2.4l-8.1,5.3c-0.5,0.3-0.9,0.4-1.4,0.3c-0.4,0-0.8-0.2-1.1-0.5c-0.3-0.3-0.5-0.6-0.6-1c-0.1-0.4-0.1-0.8,0.1-1.2
			c0.1-0.4,0.5-0.8,0.9-1.1l7.7-5.1c0.5-0.3,0.9-0.5,1.4-0.7c0.4-0.2,0.9-0.3,1.3-0.3c0.5,0,1,0.2,1.3,0.5c0.4,0.3,0.5,0.8,0.5,1.5
			v33.7h6.7c0.7,0,1.2,0.2,1.6,0.5c0.4,0.3,0.6,0.8,0.6,1.4c0,0.7-0.2,1.2-0.6,1.5c-0.4,0.3-0.9,0.5-1.6,0.5H360.6z"/>
		<path d="M406.8,486.5c-0.7,0-1.3-0.2-1.7-0.6c-0.4-0.4-0.6-1-0.6-1.8v-34.8c0-0.8,0.2-1.4,0.6-1.8c0.4-0.4,1-0.6,1.7-0.6H420
			c4.2,0,7.4,1,9.7,3.1c2.3,2.1,3.4,5,3.4,8.7c0,3.7-1.1,6.6-3.4,8.7c-2.3,2.1-5.5,3.1-9.7,3.1H409v13.6c0,0.7-0.2,1.3-0.6,1.8
			C408.1,486.3,407.5,486.5,406.8,486.5z M409,466.7h10.4c3,0,5.3-0.7,6.8-2c1.5-1.4,2.3-3.3,2.3-5.9c0-2.6-0.8-4.6-2.3-6
			c-1.5-1.4-3.8-2-6.8-2H409V466.7z"/>
		<path d="M441.3,486.5c-0.7,0-1.3-0.2-1.7-0.6c-0.4-0.4-0.6-1-0.6-1.7V461c0-0.7,0.2-1.3,0.6-1.7c0.4-0.4,0.9-0.6,1.6-0.6
			c0.7,0,1.3,0.2,1.6,0.6c0.4,0.4,0.6,1,0.6,1.7v4.5h-0.6c0.6-2.2,1.7-3.9,3.4-5.1c1.7-1.2,3.7-1.8,6.2-1.9c0.6,0,1,0.1,1.3,0.4
			c0.3,0.3,0.5,0.8,0.6,1.4c0,0.6-0.1,1.1-0.4,1.5s-0.9,0.6-1.6,0.7l-0.9,0.1c-2.5,0.2-4.5,1-5.8,2.4c-1.4,1.4-2,3.3-2,5.7v13.4
			c0,0.7-0.2,1.3-0.6,1.7S442.1,486.5,441.3,486.5z"/>
		<path d="M470.2,486.6c-2.6,0-4.9-0.6-6.8-1.7c-1.9-1.1-3.4-2.8-4.5-4.9c-1.1-2.1-1.6-4.6-1.6-7.4c0-2.1,0.3-4.1,0.9-5.8
			c0.6-1.7,1.5-3.2,2.6-4.4c1.1-1.2,2.5-2.2,4.1-2.8c1.6-0.6,3.3-1,5.3-1c2.6,0,4.9,0.6,6.8,1.7c1.9,1.1,3.4,2.8,4.5,4.9
			c1.1,2.1,1.6,4.6,1.6,7.4c0,2.1-0.3,4.1-0.9,5.8c-0.6,1.7-1.5,3.2-2.6,4.4c-1.1,1.2-2.5,2.2-4.1,2.8
			C473.9,486.3,472.1,486.6,470.2,486.6z M470.2,483c1.7,0,3.1-0.4,4.4-1.2c1.3-0.8,2.2-2,2.9-3.6c0.7-1.6,1-3.4,1-5.6
			c0-3.4-0.8-5.9-2.3-7.7s-3.5-2.7-6.1-2.7c-1.7,0-3.2,0.4-4.4,1.2c-1.2,0.8-2.2,2-2.9,3.5c-0.7,1.5-1,3.4-1,5.7
			c0,3.3,0.8,5.9,2.3,7.7C465.6,482.1,467.7,483,470.2,483z"/>
		<path d="M501.8,496.6c-2,0-3.9-0.2-5.8-0.7c-1.9-0.5-3.6-1.2-5.1-2.2c-0.4-0.3-0.7-0.6-0.9-0.9c-0.1-0.4-0.2-0.7-0.1-1.1
			c0.1-0.4,0.2-0.7,0.5-0.9c0.3-0.3,0.6-0.5,0.9-0.5c0.4-0.1,0.7,0,1.1,0.2c1.6,1,3.2,1.7,4.7,2.1c1.5,0.4,2.9,0.6,4.4,0.6
			c2.6,0,4.6-0.7,6-2.1c1.4-1.4,2-3.4,2-6.1v-6.3h0.6c-0.6,2.1-1.7,3.9-3.5,5.1c-1.8,1.3-3.9,1.9-6.3,1.9c-2.5,0-4.6-0.6-6.4-1.7
			c-1.8-1.1-3.2-2.7-4.2-4.8c-1-2-1.5-4.4-1.5-7.1c0-2,0.3-3.8,0.8-5.5c0.6-1.6,1.4-3.1,2.4-4.2s2.3-2.1,3.8-2.7c1.5-0.6,3.2-1,5-1
			c2.4,0,4.6,0.6,6.3,1.9c1.8,1.2,2.9,2.9,3.4,5l-0.6,0.7V461c0-0.7,0.2-1.3,0.6-1.7c0.4-0.4,0.9-0.6,1.6-0.6c0.7,0,1.3,0.2,1.7,0.6
			c0.4,0.4,0.6,1,0.6,1.7v23.2c0,4.1-1,7.2-3.1,9.3C508.8,495.6,505.8,496.6,501.8,496.6z M501.1,481.9c1.7,0,3.2-0.4,4.5-1.2
			c1.3-0.8,2.2-1.9,2.9-3.4c0.7-1.5,1-3.2,1-5.2c0-3-0.8-5.4-2.3-7.1c-1.5-1.8-3.6-2.6-6.2-2.6c-1.7,0-3.2,0.4-4.4,1.2
			c-1.3,0.8-2.2,1.9-2.9,3.4c-0.7,1.5-1,3.2-1,5.2c0,3,0.8,5.4,2.3,7.2C496.5,481,498.6,481.9,501.1,481.9z"/>
		<path d="M524.7,486.5c-0.7,0-1.3-0.2-1.7-0.6c-0.4-0.4-0.6-1-0.6-1.7V461c0-0.7,0.2-1.3,0.6-1.7c0.4-0.4,0.9-0.6,1.6-0.6
			c0.7,0,1.3,0.2,1.6,0.6c0.4,0.4,0.6,1,0.6,1.7v4.5h-0.6c0.6-2.2,1.7-3.9,3.4-5.1c1.7-1.2,3.7-1.8,6.2-1.9c0.6,0,1,0.1,1.3,0.4
			c0.3,0.3,0.5,0.8,0.6,1.4c0,0.6-0.1,1.1-0.4,1.5s-0.9,0.6-1.6,0.7l-0.9,0.1c-2.5,0.2-4.5,1-5.8,2.4c-1.4,1.4-2,3.3-2,5.7v13.4
			c0,0.7-0.2,1.3-0.6,1.7S525.4,486.5,524.7,486.5z"/>
		<path d="M550.8,486.6c-1.9,0-3.5-0.4-5-1.1c-1.5-0.7-2.6-1.7-3.5-3c-0.9-1.3-1.3-2.7-1.3-4.2c0-2,0.5-3.6,1.5-4.7
			c1-1.1,2.7-2,5.1-2.4c2.4-0.5,5.6-0.7,9.6-0.7h2.5v2.9h-2.4c-3,0-5.4,0.1-7.1,0.4c-1.7,0.3-2.9,0.8-3.6,1.4c-0.7,0.7-1,1.6-1,2.8
			c0,1.5,0.5,2.8,1.6,3.7c1.1,1,2.5,1.4,4.3,1.4c1.5,0,2.8-0.4,3.9-1.1c1.1-0.7,2-1.7,2.7-2.9c0.6-1.2,1-2.6,1-4.2v-6.3
			c0-2.3-0.5-4-1.4-5c-0.9-1-2.4-1.5-4.6-1.5c-1.3,0-2.6,0.2-3.9,0.5c-1.3,0.3-2.7,0.9-4.1,1.6c-0.5,0.3-1,0.3-1.3,0.3
			c-0.4-0.1-0.7-0.3-0.9-0.6c-0.2-0.3-0.4-0.6-0.4-1c0-0.4,0-0.8,0.3-1.1c0.2-0.4,0.5-0.7,1-0.9c1.6-0.8,3.2-1.4,4.8-1.8
			c1.6-0.4,3.1-0.6,4.6-0.6c2.3,0,4.3,0.4,5.8,1.1c1.5,0.8,2.6,1.9,3.4,3.4c0.7,1.5,1.1,3.5,1.1,5.9v15.1c0,0.7-0.2,1.3-0.5,1.7
			c-0.4,0.4-0.9,0.6-1.5,0.6c-0.7,0-1.2-0.2-1.6-0.6c-0.4-0.4-0.6-1-0.6-1.7v-4.3h0.5c-0.3,1.4-0.9,2.6-1.7,3.6
			c-0.8,1-1.9,1.8-3.1,2.3S552.3,486.6,550.8,486.6z"/>
		<path d="M574.1,486.5c-0.7,0-1.3-0.2-1.7-0.6c-0.4-0.4-0.6-1-0.6-1.7V461c0-0.7,0.2-1.3,0.6-1.7c0.4-0.4,0.9-0.6,1.6-0.6
			c0.7,0,1.3,0.2,1.6,0.6c0.4,0.4,0.6,1,0.6,1.7v4.9l-0.6-0.8c0.7-2.1,1.8-3.7,3.4-4.8c1.6-1.1,3.5-1.7,5.6-1.7
			c2.3,0,4.2,0.5,5.6,1.6c1.4,1.1,2.4,2.8,2.9,5.1h-0.8c0.7-2.1,1.9-3.7,3.6-4.9s3.7-1.8,6-1.8c2,0,3.7,0.4,5,1.2
			c1.3,0.8,2.3,2,3,3.5c0.7,1.6,1,3.6,1,6v14.9c0,0.7-0.2,1.3-0.6,1.7c-0.4,0.4-1,0.6-1.7,0.6c-0.7,0-1.3-0.2-1.6-0.6
			c-0.4-0.4-0.6-1-0.6-1.7v-14.7c0-2.5-0.4-4.3-1.3-5.5c-0.9-1.2-2.3-1.8-4.3-1.8c-2.2,0-4,0.8-5.3,2.3c-1.3,1.5-1.9,3.6-1.9,6.3
			v13.3c0,0.7-0.2,1.3-0.6,1.7c-0.4,0.4-1,0.6-1.7,0.6c-0.7,0-1.3-0.2-1.6-0.6s-0.6-1-0.6-1.7v-14.7c0-2.5-0.4-4.3-1.3-5.5
			c-0.9-1.2-2.3-1.8-4.3-1.8c-2.2,0-4,0.8-5.3,2.3c-1.3,1.5-1.9,3.6-1.9,6.3v13.3C576.4,485.7,575.6,486.5,574.1,486.5z"/>
		<path d="M621.7,486.5c-0.7,0-1.3-0.2-1.7-0.6c-0.4-0.4-0.6-1-0.6-1.7V461c0-0.7,0.2-1.3,0.6-1.7c0.4-0.4,0.9-0.6,1.6-0.6
			c0.7,0,1.3,0.2,1.6,0.6c0.4,0.4,0.6,1,0.6,1.7v4.9l-0.6-0.8c0.7-2.1,1.8-3.7,3.4-4.8c1.6-1.1,3.5-1.7,5.6-1.7
			c2.3,0,4.2,0.5,5.6,1.6c1.4,1.1,2.4,2.8,2.9,5.1h-0.8c0.7-2.1,1.9-3.7,3.6-4.9s3.7-1.8,6-1.8c2,0,3.7,0.4,5,1.2
			c1.3,0.8,2.3,2,3,3.5c0.7,1.6,1,3.6,1,6v14.9c0,0.7-0.2,1.3-0.6,1.7c-0.4,0.4-1,0.6-1.7,0.6c-0.7,0-1.3-0.2-1.6-0.6
			s-0.6-1-0.6-1.7v-14.7c0-2.5-0.4-4.3-1.3-5.5c-0.9-1.2-2.3-1.8-4.3-1.8c-2.2,0-4,0.8-5.3,2.3c-1.3,1.5-1.9,3.6-1.9,6.3v13.3
			c0,0.7-0.2,1.3-0.6,1.7s-1,0.6-1.7,0.6c-0.7,0-1.3-0.2-1.6-0.6s-0.6-1-0.6-1.7v-14.7c0-2.5-0.4-4.3-1.3-5.5
			c-0.9-1.2-2.3-1.8-4.3-1.8c-2.2,0-4,0.8-5.3,2.3c-1.3,1.5-1.9,3.6-1.9,6.3v13.3C623.9,485.7,623.2,486.5,621.7,486.5z"/>
		<path d="M669.1,452.6c-0.9,0-1.6-0.3-2.2-0.8c-0.5-0.5-0.8-1.2-0.8-2c0-0.9,0.3-1.6,0.8-2c0.5-0.5,1.2-0.7,2.2-0.7
			c1,0,1.7,0.2,2.2,0.7c0.5,0.5,0.8,1.1,0.8,2c0,0.9-0.3,1.5-0.8,2S670.1,452.6,669.1,452.6z M669.1,486.4c-0.7,0-1.3-0.2-1.7-0.6
			c-0.4-0.4-0.6-1-0.6-1.8v-22.7c0-0.8,0.2-1.4,0.6-1.8c0.4-0.4,0.9-0.6,1.7-0.6c0.7,0,1.3,0.2,1.7,0.6c0.4,0.4,0.6,1,0.6,1.8V484
			c0,0.8-0.2,1.4-0.6,1.8C670.4,486.2,669.9,486.4,669.1,486.4z"/>
		<path d="M682,486.5c-0.7,0-1.3-0.2-1.7-0.6c-0.4-0.4-0.6-1-0.6-1.7V461c0-0.7,0.2-1.3,0.6-1.7c0.4-0.4,0.9-0.6,1.6-0.6
			c0.7,0,1.3,0.2,1.6,0.6c0.4,0.4,0.6,1,0.6,1.7v4.8l-0.6-0.7c0.8-2.1,2-3.8,3.8-4.9c1.8-1.1,3.8-1.6,6.1-1.6c2.1,0,3.9,0.4,5.4,1.2
			s2.5,2,3.2,3.5c0.7,1.6,1.1,3.6,1.1,6v14.9c0,0.7-0.2,1.3-0.6,1.7s-0.9,0.6-1.6,0.6c-0.7,0-1.3-0.2-1.7-0.6
			c-0.4-0.4-0.6-1-0.6-1.7v-14.6c0-2.5-0.5-4.4-1.5-5.5s-2.5-1.8-4.7-1.8c-2.5,0-4.5,0.8-5.9,2.3c-1.5,1.5-2.2,3.6-2.2,6.1v13.4
			C684.3,485.7,683.5,486.5,682,486.5z"/>
		<path d="M723.3,496.6c-2,0-3.9-0.2-5.8-0.7c-1.9-0.5-3.6-1.2-5.1-2.2c-0.4-0.3-0.7-0.6-0.9-0.9c-0.1-0.4-0.2-0.7-0.1-1.1
			c0.1-0.4,0.2-0.7,0.5-0.9c0.3-0.3,0.6-0.5,0.9-0.5c0.4-0.1,0.7,0,1.1,0.2c1.6,1,3.2,1.7,4.7,2.1c1.5,0.4,2.9,0.6,4.4,0.6
			c2.6,0,4.6-0.7,6-2.1c1.4-1.4,2-3.4,2-6.1v-6.3h0.6c-0.6,2.1-1.7,3.9-3.5,5.1c-1.8,1.3-3.9,1.9-6.3,1.9c-2.5,0-4.6-0.6-6.4-1.7
			c-1.8-1.1-3.2-2.7-4.2-4.8c-1-2-1.5-4.4-1.5-7.1c0-2,0.3-3.8,0.8-5.5c0.6-1.6,1.4-3.1,2.4-4.2s2.3-2.1,3.8-2.7c1.5-0.6,3.2-1,5-1
			c2.4,0,4.6,0.6,6.3,1.9c1.8,1.2,2.9,2.9,3.4,5l-0.6,0.7V461c0-0.7,0.2-1.3,0.6-1.7c0.4-0.4,0.9-0.6,1.6-0.6c0.7,0,1.3,0.2,1.7,0.6
			c0.4,0.4,0.6,1,0.6,1.7v23.2c0,4.1-1,7.2-3.1,9.3C730.3,495.6,727.3,496.6,723.3,496.6z M722.6,481.9c1.7,0,3.2-0.4,4.5-1.2
			c1.3-0.8,2.2-1.9,2.9-3.4c0.7-1.5,1-3.2,1-5.2c0-3-0.8-5.4-2.3-7.1c-1.5-1.8-3.6-2.6-6.2-2.6c-1.7,0-3.2,0.4-4.4,1.2
			c-1.3,0.8-2.2,1.9-2.9,3.4c-0.7,1.5-1,3.2-1,5.2c0,3,0.8,5.4,2.3,7.2C718,481,720.1,481.9,722.6,481.9z"/>
		<path d="M761.2,486.1c-0.7,0-1.3-0.2-1.7-0.6s-0.6-1-0.6-1.8v-34.7c0-0.8,0.2-1.4,0.6-1.8s1-0.6,1.7-0.6c0.7,0,1.3,0.2,1.7,0.6
			s0.6,1,0.6,1.8v33.1h18.2c0.7,0,1.2,0.2,1.6,0.5c0.4,0.4,0.6,0.8,0.6,1.5c0,0.6-0.2,1.1-0.6,1.5c-0.4,0.4-0.9,0.5-1.6,0.5H761.2z"
			/>
		<path d="M796.9,486.6c-1.9,0-3.5-0.4-5-1.1c-1.5-0.7-2.6-1.7-3.5-3c-0.9-1.3-1.3-2.7-1.3-4.2c0-2,0.5-3.6,1.5-4.7
			c1-1.1,2.7-2,5.1-2.4c2.4-0.5,5.6-0.7,9.6-0.7h2.5v2.9h-2.4c-3,0-5.4,0.1-7.1,0.4c-1.7,0.3-2.9,0.8-3.6,1.4c-0.7,0.7-1,1.6-1,2.8
			c0,1.5,0.5,2.8,1.6,3.7c1.1,1,2.5,1.4,4.3,1.4c1.5,0,2.8-0.4,3.9-1.1c1.1-0.7,2-1.7,2.7-2.9c0.6-1.2,1-2.6,1-4.2v-6.3
			c0-2.3-0.5-4-1.4-5c-0.9-1-2.4-1.5-4.6-1.5c-1.3,0-2.6,0.2-3.9,0.5c-1.3,0.3-2.7,0.9-4.1,1.6c-0.5,0.3-1,0.3-1.3,0.3
			c-0.4-0.1-0.7-0.3-0.9-0.6c-0.2-0.3-0.4-0.6-0.4-1c0-0.4,0-0.8,0.3-1.1c0.2-0.4,0.5-0.7,1-0.9c1.6-0.8,3.2-1.4,4.8-1.8
			c1.6-0.4,3.1-0.6,4.6-0.6c2.3,0,4.3,0.4,5.8,1.1c1.5,0.8,2.6,1.9,3.4,3.4s1.1,3.5,1.1,5.9v15.1c0,0.7-0.2,1.3-0.5,1.7
			c-0.4,0.4-0.9,0.6-1.5,0.6c-0.7,0-1.2-0.2-1.6-0.6c-0.4-0.4-0.6-1-0.6-1.7v-4.3h0.5c-0.3,1.4-0.9,2.6-1.7,3.6
			c-0.8,1-1.9,1.8-3.1,2.3S798.4,486.6,796.9,486.6z"/>
		<path d="M820.1,486.5c-0.7,0-1.3-0.2-1.7-0.6c-0.4-0.4-0.6-1-0.6-1.7V461c0-0.7,0.2-1.3,0.6-1.7c0.4-0.4,0.9-0.6,1.6-0.6
			c0.7,0,1.3,0.2,1.6,0.6c0.4,0.4,0.6,1,0.6,1.7v4.8l-0.6-0.7c0.8-2.1,2-3.8,3.8-4.9c1.8-1.1,3.8-1.6,6.1-1.6c2.1,0,3.9,0.4,5.4,1.2
			c1.4,0.8,2.5,2,3.2,3.5c0.7,1.6,1.1,3.6,1.1,6v14.9c0,0.7-0.2,1.3-0.6,1.7c-0.4,0.4-0.9,0.6-1.6,0.6c-0.7,0-1.3-0.2-1.7-0.6
			c-0.4-0.4-0.6-1-0.6-1.7v-14.6c0-2.5-0.5-4.4-1.5-5.5c-1-1.2-2.5-1.8-4.7-1.8c-2.5,0-4.5,0.8-5.9,2.3c-1.5,1.5-2.2,3.6-2.2,6.1
			v13.4C822.4,485.7,821.6,486.5,820.1,486.5z"/>
		<path d="M861.4,496.6c-2,0-3.9-0.2-5.8-0.7c-1.9-0.5-3.6-1.2-5.1-2.2c-0.4-0.3-0.7-0.6-0.9-0.9c-0.1-0.4-0.2-0.7-0.1-1.1
			c0.1-0.4,0.2-0.7,0.5-0.9c0.3-0.3,0.6-0.5,0.9-0.5c0.4-0.1,0.7,0,1.1,0.2c1.6,1,3.2,1.7,4.7,2.1c1.5,0.4,2.9,0.6,4.4,0.6
			c2.6,0,4.6-0.7,6-2.1c1.4-1.4,2-3.4,2-6.1v-6.3h0.6c-0.6,2.1-1.7,3.9-3.5,5.1c-1.8,1.3-3.9,1.9-6.3,1.9c-2.5,0-4.6-0.6-6.4-1.7
			c-1.8-1.1-3.2-2.7-4.2-4.8c-1-2-1.5-4.4-1.5-7.1c0-2,0.3-3.8,0.8-5.5c0.6-1.6,1.4-3.1,2.4-4.2s2.3-2.1,3.8-2.7c1.5-0.6,3.2-1,5-1
			c2.4,0,4.6,0.6,6.3,1.9c1.8,1.2,2.9,2.9,3.4,5l-0.6,0.7V461c0-0.7,0.2-1.3,0.6-1.7c0.4-0.4,0.9-0.6,1.6-0.6c0.7,0,1.3,0.2,1.7,0.6
			c0.4,0.4,0.6,1,0.6,1.7v23.2c0,4.1-1,7.2-3.1,9.3C868.4,495.6,865.4,496.6,861.4,496.6z M860.7,481.9c1.7,0,3.2-0.4,4.5-1.2
			c1.3-0.8,2.2-1.9,2.9-3.4c0.7-1.5,1-3.2,1-5.2c0-3-0.8-5.4-2.3-7.1c-1.5-1.8-3.6-2.6-6.2-2.6c-1.7,0-3.2,0.4-4.4,1.2
			c-1.3,0.8-2.2,1.9-2.9,3.4s-1,3.2-1,5.2c0,3,0.8,5.4,2.3,7.2C856.1,481,858.2,481.9,860.7,481.9z"/>
		<path d="M891.6,486.6c-2.2,0-4-0.4-5.4-1.2c-1.4-0.8-2.5-2-3.2-3.6c-0.7-1.6-1.1-3.6-1.1-5.9V461c0-0.8,0.2-1.4,0.6-1.7
			c0.4-0.4,0.9-0.6,1.6-0.6c0.7,0,1.3,0.2,1.7,0.6c0.4,0.4,0.6,0.9,0.6,1.7v14.8c0,2.4,0.5,4.1,1.5,5.3c1,1.2,2.5,1.8,4.6,1.8
			c2.3,0,4.2-0.8,5.6-2.3c1.4-1.6,2.2-3.6,2.2-6.1V461c0-0.8,0.2-1.4,0.6-1.7c0.4-0.4,1-0.6,1.7-0.6c0.7,0,1.3,0.2,1.6,0.6
			c0.4,0.4,0.6,0.9,0.6,1.7v23.2c0,1.6-0.7,2.3-2.2,2.3c-0.7,0-1.3-0.2-1.6-0.6c-0.4-0.4-0.6-1-0.6-1.7v-5.1l0.7,0.8
			c-0.7,2.2-2,3.9-3.6,5C895.7,486.1,893.8,486.6,891.6,486.6z"/>
		<path d="M921.7,486.6c-1.9,0-3.5-0.4-5-1.1c-1.5-0.7-2.6-1.7-3.5-3c-0.9-1.3-1.3-2.7-1.3-4.2c0-2,0.5-3.6,1.5-4.7
			c1-1.1,2.7-2,5.1-2.4c2.4-0.5,5.6-0.7,9.6-0.7h2.5v2.9h-2.4c-3,0-5.4,0.1-7.1,0.4c-1.7,0.3-2.9,0.8-3.6,1.4c-0.7,0.7-1,1.6-1,2.8
			c0,1.5,0.5,2.8,1.6,3.7c1.1,1,2.5,1.4,4.3,1.4c1.5,0,2.8-0.4,3.9-1.1c1.1-0.7,2-1.7,2.7-2.9c0.6-1.2,1-2.6,1-4.2v-6.3
			c0-2.3-0.5-4-1.4-5c-0.9-1-2.4-1.5-4.6-1.5c-1.3,0-2.6,0.2-3.9,0.5c-1.3,0.3-2.7,0.9-4.1,1.6c-0.5,0.3-1,0.3-1.3,0.3
			c-0.4-0.1-0.7-0.3-0.9-0.6c-0.2-0.3-0.4-0.6-0.4-1c0-0.4,0-0.8,0.3-1.1c0.2-0.4,0.5-0.7,1-0.9c1.6-0.8,3.2-1.4,4.8-1.8
			c1.6-0.4,3.1-0.6,4.6-0.6c2.3,0,4.3,0.4,5.8,1.1c1.5,0.8,2.6,1.9,3.4,3.4s1.1,3.5,1.1,5.9v15.1c0,0.7-0.2,1.3-0.5,1.7
			c-0.4,0.4-0.9,0.6-1.5,0.6c-0.7,0-1.2-0.2-1.6-0.6c-0.4-0.4-0.6-1-0.6-1.7v-4.3h0.5c-0.3,1.4-0.9,2.6-1.7,3.6
			c-0.8,1-1.9,1.8-3.1,2.3S923.2,486.6,921.7,486.6z"/>
		<path d="M954.6,496.6c-2,0-3.9-0.2-5.8-0.7c-1.9-0.5-3.6-1.2-5.1-2.2c-0.4-0.3-0.7-0.6-0.9-0.9c-0.1-0.4-0.2-0.7-0.1-1.1
			c0.1-0.4,0.2-0.7,0.5-0.9c0.3-0.3,0.6-0.5,0.9-0.5c0.4-0.1,0.7,0,1.1,0.2c1.6,1,3.2,1.7,4.7,2.1c1.5,0.4,2.9,0.6,4.4,0.6
			c2.6,0,4.6-0.7,6-2.1c1.4-1.4,2-3.4,2-6.1v-6.3h0.6c-0.6,2.1-1.7,3.9-3.5,5.1c-1.8,1.3-3.9,1.9-6.3,1.9c-2.5,0-4.6-0.6-6.4-1.7
			c-1.8-1.1-3.2-2.7-4.2-4.8c-1-2-1.5-4.4-1.5-7.1c0-2,0.3-3.8,0.8-5.5c0.6-1.6,1.4-3.1,2.4-4.2s2.3-2.1,3.8-2.7c1.5-0.6,3.2-1,5-1
			c2.4,0,4.6,0.6,6.3,1.9c1.8,1.2,2.9,2.9,3.4,5l-0.6,0.7V461c0-0.7,0.2-1.3,0.6-1.7c0.4-0.4,0.9-0.6,1.6-0.6c0.7,0,1.3,0.2,1.7,0.6
			c0.4,0.4,0.6,1,0.6,1.7v23.2c0,4.1-1,7.2-3.1,9.3C961.6,495.6,958.6,496.6,954.6,496.6z M953.9,481.9c1.7,0,3.2-0.4,4.5-1.2
			c1.3-0.8,2.2-1.9,2.9-3.4c0.7-1.5,1-3.2,1-5.2c0-3-0.8-5.4-2.3-7.1c-1.5-1.8-3.6-2.6-6.2-2.6c-1.7,0-3.2,0.4-4.4,1.2
			c-1.3,0.8-2.2,1.9-2.9,3.4c-0.7,1.5-1,3.2-1,5.2c0,3,0.8,5.4,2.3,7.2C949.3,481,951.4,481.9,953.9,481.9z"/>
		<path d="M987.4,486.6c-2.9,0-5.3-0.6-7.4-1.7c-2.1-1.1-3.6-2.7-4.8-4.8c-1.1-2.1-1.7-4.6-1.7-7.4c0-2.8,0.6-5.3,1.7-7.4
			c1.1-2.1,2.6-3.7,4.6-4.9c1.9-1.2,4.2-1.8,6.8-1.8c1.8,0,3.4,0.3,4.9,0.9c1.4,0.6,2.7,1.5,3.7,2.6c1,1.1,1.8,2.5,2.3,4.2
			c0.5,1.6,0.8,3.5,0.8,5.5c0,0.6-0.2,1-0.5,1.3c-0.3,0.3-0.8,0.4-1.4,0.4H977v-2.9h18.3l-0.9,0.7c0-2-0.3-3.7-0.9-5.1
			c-0.6-1.4-1.5-2.5-2.6-3.2c-1.1-0.7-2.5-1.1-4.3-1.1c-1.9,0-3.5,0.4-4.8,1.3c-1.3,0.9-2.3,2.1-3,3.6s-1,3.3-1,5.4v0.3
			c0,3.4,0.8,6,2.5,7.8c1.6,1.8,4,2.7,7,2.7c1.3,0,2.5-0.2,3.8-0.5c1.2-0.3,2.5-0.9,3.6-1.7c0.5-0.3,1-0.5,1.4-0.5
			c0.4,0,0.8,0.1,1,0.4c0.3,0.2,0.4,0.5,0.5,0.9c0.1,0.4,0.1,0.7-0.1,1.1c-0.2,0.4-0.5,0.8-1,1.1c-1.2,0.9-2.7,1.6-4.3,2.1
			C990.6,486.4,989,486.6,987.4,486.6z"/>
		<g>
			<path class="st3" d="M1025.9,466.4c-0.5,0-0.9-0.1-1.3-0.3c-1.1-0.6-2.5-2.1-2.5-6.3c0-8.8-4.6-13.8-4.7-13.8l-0.8-0.8l4.1-4.5
				l0.7,1.1c0.1,0.1,2.2,3.2,5.7,2.3l0.5,2.2c-3.4,0.9-5.8-1-7-2.2l-1,1.2c1.5,1.9,4.6,7,4.6,14.6c0,2.3,0.5,3.8,1.3,4.2
				c0.6,0.3,1.5,0,2.4-0.9c2.2-2.2,3.9-7.8,3.9-7.9l2,0.7c-0.1,0.3-1.8,6.2-4.5,8.9C1028.1,465.9,1027,466.4,1025.9,466.4z"/>
			<path class="st3" d="M1059.4,466.4c0.5,0,0.9-0.1,1.3-0.3c1.1-0.6,2.5-2.1,2.5-6.3c0-8.8,4.6-13.8,4.7-13.8l0.8-0.8l-4.1-4.5
				l-0.7,1.1c-0.1,0.1-2.2,3.2-5.7,2.3l-0.5,2.2c3.4,0.9,5.8-1,7-2.2l1,1.2c-1.5,1.9-4.6,7-4.6,14.6c0,2.3-0.5,3.8-1.3,4.2
				c-0.6,0.3-1.5,0-2.4-0.9c-2.2-2.2-3.9-7.8-3.9-7.9l-2,0.7c0.1,0.3,1.8,6.2,4.5,8.9C1057.2,465.9,1058.4,466.4,1059.4,466.4z"/>
			<rect x="1040" y="460.5" class="st3" width="5.3" height="21.3"/>
			<rect x="1041.1" y="460.5" class="st4" width="3.1" height="21.3"/>
			<path class="st3" d="M1025.1,440.6c1.5,13.4,8.8,24.1,17.5,24.1c8.7,0,16-10.7,17.5-24.1H1025.1z"/>
			<path class="st4" d="M1028.5,440.6c1.2,13.5,7.1,24.3,14.1,24.3s12.9-10.8,14.1-24.3H1028.5z"/>
			<path class="st3" d="M1056.2,485.8h-27.2c0,0,6.1-7.8,13.6-7.8C1050.2,477.9,1056.2,485.8,1056.2,485.8z"/>
			<path class="st4" d="M1053,485.8h-20.6c0,0,4.6-8,10.3-8S1053,485.8,1053,485.8z"/>
			<rect x="1025.1" y="487.5" class="st5" width="35.1" height="5.2"/>
			<rect x="1029.1" y="485.8" class="st6" width="27.2" height="1.7"/>
			<rect x="1034" y="488.8" class="st3" width="17.4" height="2.6"/>
			<rect x="1025.1" y="487.5" class="st7" width="1.7" height="5.2"/>
			<rect x="1058.5" y="487.5" class="st6" width="1.7" height="5.2"/>
			<rect x="1034.8" y="488.8" class="st4" width="15.6" height="2.6"/>
		</g>
	</g>
</g>
<g>
	<g>
		<path d="M587.1,526.1c-0.1,0-0.1,0-0.2-0.1s0-0.1,0-0.2l1.2-7.8h-3c-0.1,0-0.1,0-0.2-0.1s-0.1-0.1-0.1-0.2c0-0.1,0-0.2,0.1-0.2
			c0.1,0,0.1-0.1,0.2-0.1h6.6c0.1,0,0.2,0,0.2,0s0.1,0.1,0.1,0.1c0,0.1,0,0.2-0.1,0.2c-0.1,0-0.1,0.1-0.2,0.1h-3l-1.2,7.8
			c0,0.1,0,0.1-0.1,0.2S587.2,526.1,587.1,526.1z"/>
		<path d="M591.9,526.1c-0.1,0-0.1,0-0.2-0.1c0-0.1,0-0.1,0-0.2l1.3-8.1c0-0.1,0-0.2,0.1-0.2c0,0,0.1-0.1,0.2-0.1
			c0.1,0,0.1,0,0.2,0.1s0,0.1,0,0.2l-0.6,3.9h-0.1c0.2-0.5,0.5-0.9,0.9-1.1c0.4-0.3,0.9-0.4,1.5-0.4c0.4,0,0.8,0.1,1.1,0.3
			c0.3,0.2,0.5,0.4,0.6,0.8c0.1,0.3,0.1,0.8,0.1,1.3l-0.5,3.4c0,0.1,0,0.1-0.1,0.2c-0.1,0-0.1,0.1-0.2,0.1c-0.1,0-0.1,0-0.2-0.1
			c0-0.1,0-0.1,0-0.2l0.5-3.3c0.1-0.6,0-1.1-0.2-1.4c-0.2-0.3-0.6-0.5-1.1-0.5c-0.7,0-1.2,0.2-1.6,0.6c-0.4,0.4-0.6,1-0.8,1.7
			l-0.5,3C592.2,526,592.1,526.1,591.9,526.1z"/>
		<path d="M600.2,526.1c-0.3,0-0.6-0.1-0.9-0.2s-0.5-0.3-0.7-0.6c-0.2-0.3-0.3-0.6-0.3-0.9c0-0.4,0.1-0.7,0.3-1s0.6-0.4,1.1-0.5
			s1.1-0.2,1.9-0.2h1l-0.1,0.4h-0.7c-0.7,0-1.3,0-1.8,0.1c-0.4,0.1-0.7,0.2-0.9,0.4c-0.2,0.2-0.3,0.4-0.3,0.7c0,0.4,0.1,0.7,0.4,0.9
			c0.3,0.2,0.6,0.3,0.9,0.3c0.3,0,0.6-0.1,0.9-0.2s0.5-0.4,0.8-0.7s0.3-0.6,0.4-1l0.2-1.5c0.1-0.5,0-1-0.2-1.2
			c-0.2-0.3-0.6-0.4-1.2-0.4c-0.3,0-0.6,0-0.9,0.1c-0.3,0.1-0.6,0.2-0.8,0.4c-0.1,0-0.1,0.1-0.2,0.1s-0.1,0-0.1,0
			c0,0-0.1-0.1-0.1-0.1c0,0,0-0.1,0-0.2s0.1-0.1,0.1-0.2c0.3-0.2,0.6-0.3,0.9-0.4c0.3-0.1,0.7-0.1,1-0.1c0.5,0,0.9,0.1,1.1,0.3
			c0.3,0.2,0.5,0.4,0.6,0.8c0.1,0.3,0.1,0.8,0,1.2l-0.6,3.4c0,0.1,0,0.1-0.1,0.2c0,0-0.1,0.1-0.2,0.1s-0.1,0-0.2-0.1
			c0-0.1,0-0.1,0-0.2l0.2-1.2h0.1c-0.1,0.3-0.3,0.6-0.5,0.8c-0.2,0.2-0.5,0.4-0.8,0.5C600.7,526,600.5,526.1,600.2,526.1z"/>
		<path d="M606.5,526.1c-0.4,0-0.7-0.1-1-0.2c-0.3-0.2-0.4-0.4-0.5-0.7s-0.1-0.6-0.1-1l0.6-3.5h-0.9c-0.1,0-0.1,0-0.2,0
			s-0.1-0.1-0.1-0.1c0-0.1,0-0.2,0.1-0.2c0.1,0,0.1-0.1,0.2-0.1h1l0.3-1.6c0-0.1,0-0.2,0.1-0.2c0,0,0.1-0.1,0.2-0.1
			c0.1,0,0.1,0,0.2,0.1c0,0.1,0,0.1,0,0.2l-0.3,1.6h1.7c0.1,0,0.2,0,0.2,0c0,0,0.1,0.1,0.1,0.1c0,0.1,0,0.1-0.1,0.2
			c-0.1,0-0.1,0.1-0.2,0.1H606l-0.5,3.4c-0.1,0.6,0,1,0.1,1.2s0.5,0.4,0.9,0.4c0.2,0,0.3,0,0.4-0.1c0.1,0,0.2-0.1,0.2-0.1
			c0,0,0.1,0,0.1,0c0,0,0,0.1,0,0.1c0,0.1,0,0.1,0,0.2s-0.1,0.1-0.1,0.1c-0.1,0-0.2,0.1-0.3,0.1
			C606.8,526.1,606.6,526.1,606.5,526.1z"/>
		<path d="M613.3,526.1c-0.4,0-0.8-0.1-1.1-0.2c-0.3-0.1-0.6-0.2-0.9-0.4c-0.1,0-0.1-0.1-0.1-0.1s0-0.1,0-0.2c0,0,0-0.1,0.1-0.1
			c0,0,0.1,0,0.1,0c0.1,0,0.1,0,0.2,0.1c0.2,0.2,0.5,0.3,0.8,0.4c0.3,0.1,0.6,0.1,0.9,0.1c0.5,0,0.9-0.1,1.1-0.3
			c0.3-0.2,0.4-0.5,0.4-0.9c0-0.2-0.1-0.4-0.2-0.6c-0.2-0.2-0.4-0.3-0.7-0.3l-1.2-0.3c-0.4-0.1-0.6-0.3-0.9-0.5s-0.3-0.5-0.3-0.9
			c0-0.3,0.1-0.6,0.3-0.9c0.2-0.3,0.4-0.5,0.8-0.6c0.3-0.1,0.7-0.2,1.1-0.2c0.4,0,0.7,0.1,1,0.2c0.3,0.1,0.6,0.3,0.8,0.4
			c0.1,0.1,0.1,0.1,0.1,0.2s0,0.1,0,0.2s0,0.1-0.1,0.1c0,0-0.1,0-0.1,0c-0.1,0-0.1,0-0.2-0.1c-0.2-0.2-0.4-0.3-0.7-0.4
			c-0.3-0.1-0.5-0.1-0.8-0.1c-0.5,0-0.9,0.1-1.2,0.3c-0.3,0.2-0.4,0.5-0.4,0.9c0,0.2,0.1,0.4,0.2,0.6c0.1,0.2,0.4,0.3,0.6,0.4
			l1.2,0.3c0.4,0.1,0.7,0.3,0.9,0.5c0.2,0.2,0.3,0.5,0.3,0.9c0,0.5-0.2,0.9-0.6,1.2C614.5,525.9,613.9,526.1,613.3,526.1z"/>
		<path d="M619,526.1c-0.4,0-0.7-0.1-1-0.2c-0.3-0.2-0.4-0.4-0.5-0.7s-0.1-0.6-0.1-1l0.6-3.5h-0.9c-0.1,0-0.1,0-0.2,0
			s-0.1-0.1-0.1-0.1c0-0.1,0-0.2,0.1-0.2c0.1,0,0.1-0.1,0.2-0.1h1l0.3-1.6c0-0.1,0-0.2,0.1-0.2c0,0,0.1-0.1,0.2-0.1
			c0.1,0,0.1,0,0.2,0.1c0,0.1,0,0.1,0,0.2l-0.3,1.6h1.7c0.1,0,0.2,0,0.2,0c0,0,0.1,0.1,0.1,0.1c0,0.1,0,0.1-0.1,0.2
			c-0.1,0-0.1,0.1-0.2,0.1h-1.7l-0.5,3.4c-0.1,0.6,0,1,0.1,1.2s0.5,0.4,0.9,0.4c0.2,0,0.3,0,0.4-0.1c0.1,0,0.2-0.1,0.2-0.1
			c0,0,0.1,0,0.1,0c0,0,0,0.1,0,0.1c0,0.1,0,0.1,0,0.2s-0.1,0.1-0.1,0.1c-0.1,0-0.2,0.1-0.3,0.1C619.3,526.1,619.1,526.1,619,526.1z
			"/>
		<path d="M622.7,526.1c-0.3,0-0.6-0.1-0.9-0.2s-0.5-0.3-0.7-0.6c-0.2-0.3-0.3-0.6-0.3-0.9c0-0.4,0.1-0.7,0.3-1s0.6-0.4,1.1-0.5
			s1.1-0.2,1.9-0.2h1l-0.1,0.4h-0.7c-0.7,0-1.3,0-1.8,0.1c-0.4,0.1-0.7,0.2-0.9,0.4c-0.2,0.2-0.3,0.4-0.3,0.7c0,0.4,0.1,0.7,0.4,0.9
			c0.3,0.2,0.6,0.3,0.9,0.3c0.3,0,0.6-0.1,0.9-0.2s0.5-0.4,0.8-0.7s0.3-0.6,0.4-1l0.2-1.5c0.1-0.5,0-1-0.2-1.2
			c-0.2-0.3-0.6-0.4-1.2-0.4c-0.3,0-0.6,0-0.9,0.1c-0.3,0.1-0.6,0.2-0.8,0.4c-0.1,0-0.1,0.1-0.2,0.1s-0.1,0-0.1,0
			c0,0-0.1-0.1-0.1-0.1c0,0,0-0.1,0-0.2s0.1-0.1,0.1-0.2c0.3-0.2,0.6-0.3,0.9-0.4c0.3-0.1,0.7-0.1,1-0.1c0.5,0,0.9,0.1,1.1,0.3
			c0.3,0.2,0.5,0.4,0.6,0.8c0.1,0.3,0.1,0.8,0,1.2l-0.6,3.4c0,0.1,0,0.1-0.1,0.2c0,0-0.1,0.1-0.2,0.1s-0.1,0-0.2-0.1
			c0-0.1,0-0.1,0-0.2l0.2-1.2h0.1c-0.1,0.3-0.3,0.6-0.5,0.8c-0.2,0.2-0.5,0.4-0.8,0.5C623.2,526,623,526.1,622.7,526.1z"/>
		<path d="M627.2,526.1c-0.1,0-0.1,0-0.2-0.1s0-0.1,0-0.2l0.9-5.4c0-0.1,0-0.2,0.1-0.2s0.1-0.1,0.2-0.1c0.1,0,0.1,0,0.2,0.1
			s0.1,0.1,0,0.2l-0.2,1.1H628c0.2-0.5,0.5-0.8,0.9-1.1s0.9-0.4,1.4-0.4c0.1,0,0.2,0,0.3,0s0.1,0.1,0.1,0.2s0,0.1-0.1,0.2
			s-0.1,0.1-0.2,0.1l-0.1,0c-0.7,0.1-1.3,0.3-1.6,0.6c-0.3,0.4-0.5,0.9-0.6,1.5l-0.5,3.2c0,0.1,0,0.1-0.1,0.2
			S627.3,526.1,627.2,526.1z"/>
		<path d="M632.9,526.1c-0.4,0-0.7-0.1-1-0.2c-0.3-0.2-0.4-0.4-0.5-0.7s-0.1-0.6-0.1-1l0.6-3.5H631c-0.1,0-0.1,0-0.2,0
			s-0.1-0.1-0.1-0.1c0-0.1,0-0.2,0.1-0.2c0.1,0,0.1-0.1,0.2-0.1h1l0.3-1.6c0-0.1,0-0.2,0.1-0.2c0,0,0.1-0.1,0.2-0.1
			c0.1,0,0.1,0,0.2,0.1c0,0.1,0,0.1,0,0.2l-0.3,1.6h1.7c0.1,0,0.2,0,0.2,0c0,0,0.1,0.1,0.1,0.1c0,0.1,0,0.1-0.1,0.2
			c-0.1,0-0.1,0.1-0.2,0.1h-1.7l-0.5,3.4c-0.1,0.6,0,1,0.1,1.2s0.5,0.4,0.9,0.4c0.2,0,0.3,0,0.4-0.1c0.1,0,0.2-0.1,0.2-0.1
			c0,0,0.1,0,0.1,0c0,0,0,0.1,0,0.1c0,0.1,0,0.1,0,0.2s-0.1,0.1-0.1,0.1c-0.1,0-0.2,0.1-0.3,0.1
			C633.2,526.1,633.1,526.1,632.9,526.1z"/>
		<path d="M636.8,526.1c-0.4,0-0.8-0.1-1.1-0.2c-0.3-0.1-0.6-0.2-0.9-0.4c-0.1,0-0.1-0.1-0.1-0.1s0-0.1,0-0.2c0,0,0-0.1,0.1-0.1
			c0,0,0.1,0,0.1,0c0.1,0,0.1,0,0.2,0.1c0.2,0.2,0.5,0.3,0.8,0.4c0.3,0.1,0.6,0.1,0.9,0.1c0.5,0,0.9-0.1,1.1-0.3
			c0.3-0.2,0.4-0.5,0.4-0.9c0-0.2-0.1-0.4-0.2-0.6c-0.2-0.2-0.4-0.3-0.7-0.3l-1.2-0.3c-0.4-0.1-0.6-0.3-0.9-0.5s-0.3-0.5-0.3-0.9
			c0-0.3,0.1-0.6,0.3-0.9c0.2-0.3,0.4-0.5,0.8-0.6c0.3-0.1,0.7-0.2,1.1-0.2c0.4,0,0.7,0.1,1,0.2c0.3,0.1,0.6,0.3,0.8,0.4
			c0.1,0.1,0.1,0.1,0.1,0.2s0,0.1,0,0.2s0,0.1-0.1,0.1c0,0-0.1,0-0.1,0c-0.1,0-0.1,0-0.2-0.1c-0.2-0.2-0.4-0.3-0.7-0.4
			c-0.3-0.1-0.5-0.1-0.8-0.1c-0.5,0-0.9,0.1-1.2,0.3c-0.3,0.2-0.4,0.5-0.4,0.9c0,0.2,0.1,0.4,0.2,0.6c0.1,0.2,0.4,0.3,0.6,0.4
			l1.2,0.3c0.4,0.1,0.7,0.3,0.9,0.5c0.2,0.2,0.3,0.5,0.3,0.9c0,0.5-0.2,0.9-0.6,1.2C637.9,525.9,637.4,526.1,636.8,526.1z"/>
		<path d="M645.1,526.1c-0.1,0-0.2,0-0.2-0.1c-0.1-0.1-0.1-0.1-0.1-0.2l-1-5.2c0-0.1,0-0.2,0-0.2c0-0.1,0-0.1,0.1-0.2
			s0.1-0.1,0.2-0.1c0.1,0,0.1,0,0.2,0.1c0,0,0.1,0.1,0.1,0.2l1,5.5H645l2.8-5.5c0-0.1,0.1-0.2,0.2-0.2c0.1,0,0.1-0.1,0.2-0.1
			s0.2,0,0.2,0.1c0.1,0,0.1,0.1,0.1,0.2l1,5.4h-0.3l2.8-5.5c0-0.1,0.1-0.1,0.1-0.1s0.1,0,0.2,0c0.1,0,0.1,0,0.2,0.1
			c0,0,0.1,0.1,0.1,0.1c0,0.1,0,0.1,0,0.2l-2.7,5.3c0,0.1-0.1,0.1-0.2,0.2c-0.1,0-0.1,0.1-0.2,0.1c-0.1,0-0.2,0-0.2-0.1
			c-0.1-0.1-0.1-0.1-0.1-0.2l-1-5.2h0.1l-2.7,5.2c0,0.1-0.1,0.1-0.2,0.2C645.3,526,645.2,526.1,645.1,526.1z"/>
		<path d="M653.6,526.1c-0.1,0-0.1,0-0.2-0.1c0-0.1,0-0.1,0-0.2l0.9-5.4c0-0.1,0-0.2,0.1-0.2c0,0,0.1-0.1,0.2-0.1s0.1,0,0.2,0.1
			s0,0.1,0,0.2l-0.9,5.4c0,0.1,0,0.1-0.1,0.2C653.7,526,653.6,526.1,653.6,526.1z M654.8,518.6c-0.1,0-0.2,0-0.3-0.1
			c-0.1-0.1-0.1-0.1-0.1-0.2c0-0.2,0-0.3,0.1-0.4s0.2-0.1,0.4-0.1c0.1,0,0.2,0,0.3,0.1c0.1,0.1,0.1,0.1,0.1,0.3c0,0.2,0,0.3-0.1,0.4
			C655,518.6,654.9,518.6,654.8,518.6z"/>
		<path d="M657.9,526.1c-0.4,0-0.7-0.1-1-0.2c-0.3-0.2-0.4-0.4-0.5-0.7c-0.1-0.3-0.1-0.6-0.1-1l0.6-3.5H656c-0.1,0-0.1,0-0.2,0
			s-0.1-0.1-0.1-0.1c0-0.1,0-0.2,0.1-0.2s0.1-0.1,0.2-0.1h1l0.3-1.6c0-0.1,0-0.2,0.1-0.2s0.1-0.1,0.2-0.1c0.1,0,0.1,0,0.2,0.1
			c0,0.1,0,0.1,0,0.2l-0.3,1.6h1.7c0.1,0,0.2,0,0.2,0c0,0,0.1,0.1,0.1,0.1c0,0.1,0,0.1-0.1,0.2c-0.1,0-0.1,0.1-0.2,0.1h-1.7
			l-0.5,3.4c-0.1,0.6,0,1,0.1,1.2c0.2,0.2,0.5,0.4,0.9,0.4c0.2,0,0.3,0,0.4-0.1c0.1,0,0.2-0.1,0.2-0.1c0,0,0.1,0,0.1,0
			c0,0,0,0.1,0,0.1c0,0.1,0,0.1,0,0.2c0,0-0.1,0.1-0.1,0.1c-0.1,0-0.2,0.1-0.3,0.1C658.2,526.1,658.1,526.1,657.9,526.1z"/>
		<path d="M659.9,526.1c-0.1,0-0.1,0-0.2-0.1c0-0.1,0-0.1,0-0.2l1.3-8.1c0-0.1,0-0.2,0.1-0.2c0,0,0.1-0.1,0.2-0.1s0.1,0,0.2,0.1
			s0,0.1,0,0.2l-0.6,3.9h-0.1c0.2-0.5,0.5-0.9,0.9-1.1c0.4-0.3,0.9-0.4,1.5-0.4c0.4,0,0.8,0.1,1.1,0.3c0.3,0.2,0.5,0.4,0.6,0.8
			c0.1,0.3,0.1,0.8,0.1,1.3l-0.5,3.4c0,0.1,0,0.1-0.1,0.2s-0.1,0.1-0.2,0.1c-0.1,0-0.1,0-0.2-0.1s0-0.1,0-0.2l0.5-3.3
			c0.1-0.6,0-1.1-0.2-1.4c-0.2-0.3-0.6-0.5-1.1-0.5c-0.7,0-1.2,0.2-1.6,0.6c-0.4,0.4-0.6,1-0.8,1.7l-0.5,3
			C660.2,526,660.1,526.1,659.9,526.1z"/>
		<path d="M672.7,526.1c-0.5,0-1-0.1-1.4-0.2c-0.4-0.1-0.7-0.4-0.9-0.7s-0.4-0.7-0.5-1.1s-0.1-1,0-1.5l0.8-4.8c0-0.1,0-0.2,0.1-0.2
			s0.1-0.1,0.2-0.1s0.1,0,0.2,0.1c0,0.1,0,0.1,0,0.2l-0.8,4.8c-0.2,1,0,1.8,0.3,2.3s1,0.7,1.9,0.7c0.9,0,1.6-0.2,2.1-0.7
			c0.5-0.4,0.8-1.2,1-2.2l0.8-5c0-0.1,0-0.2,0.1-0.2c0,0,0.1-0.1,0.2-0.1s0.1,0,0.2,0.1s0,0.1,0,0.2l-0.8,5.1
			c-0.1,0.7-0.3,1.3-0.6,1.8s-0.7,0.8-1.2,1.1C674,526,673.4,526.1,672.7,526.1z"/>
		<path d="M679.7,526.1c-0.1,0-0.2,0-0.2-0.1c-0.1-0.1-0.1-0.1-0.1-0.2l-1-5.2c0-0.1,0-0.2,0-0.2c0-0.1,0-0.1,0.1-0.2
			s0.1-0.1,0.2-0.1c0.1,0,0.1,0,0.2,0.1c0,0,0.1,0.1,0.1,0.2l1,5.5h-0.3l2.8-5.5c0-0.1,0.1-0.2,0.2-0.2c0.1,0,0.1-0.1,0.2-0.1
			s0.2,0,0.2,0.1c0.1,0,0.1,0.1,0.1,0.2l1,5.4h-0.3l2.8-5.5c0-0.1,0.1-0.1,0.1-0.1s0.1,0,0.2,0c0.1,0,0.1,0,0.2,0.1
			c0,0,0.1,0.1,0.1,0.1c0,0.1,0,0.1,0,0.2l-2.7,5.3c0,0.1-0.1,0.1-0.2,0.2c-0.1,0-0.1,0.1-0.2,0.1c-0.1,0-0.2,0-0.2-0.1
			c-0.1-0.1-0.1-0.1-0.1-0.2l-1-5.2h0.1l-2.7,5.2c0,0.1-0.1,0.1-0.2,0.2C679.9,526,679.8,526.1,679.7,526.1z"/>
		<path d="M691.3,526.1c-0.5,0-1-0.1-1.4-0.2c-0.4-0.1-0.7-0.4-0.9-0.7s-0.4-0.7-0.5-1.1s-0.1-1,0-1.5l0.8-4.8c0-0.1,0-0.2,0.1-0.2
			s0.1-0.1,0.2-0.1s0.1,0,0.2,0.1c0,0.1,0,0.1,0,0.2l-0.8,4.8c-0.2,1,0,1.8,0.3,2.3s1,0.7,1.9,0.7c0.9,0,1.6-0.2,2.1-0.7
			c0.5-0.4,0.8-1.2,1-2.2l0.8-5c0-0.1,0-0.2,0.1-0.2c0,0,0.1-0.1,0.2-0.1s0.1,0,0.2,0.1s0,0.1,0,0.2l-0.8,5.1
			c-0.1,0.7-0.3,1.3-0.6,1.8s-0.7,0.8-1.2,1.1C692.6,526,692,526.1,691.3,526.1z"/>
	</g>
</g>
</svg>
