<?xml version="1.0" encoding="utf-8"?>
<svg version="1.1" id="Layer_1" xmlns="http://www.w3.org/2000/svg" xmlns:xlink="http://www.w3.org/1999/xlink" x="0px" y="0px"
	 viewBox="0 0 1280 640" style="enable-background:new 0 0 1280 640;" xml:space="preserve">
<style type="text/css">
	.st0{fill:#FFA4A4;}
	.st1{fill:#F2B200;}
	.st2{fill:#FFCE31;}
	.st3{fill:#BC845E;}
	.st4{fill:#916140;}
	.st5{fill:#CE9C7A;}
	.st6{opacity:0.47;fill:#FFFFFF;stroke:#000000;stroke-width:0.916;stroke-linecap:round;stroke-miterlimit:10;}
</style>
<g>
	<g>
		<g>
			<path d="M270.7,162c-5.9,2-8.7,7.5-7.5,13.6c2.2,10.4,3.4,18,4.3,28.6c0.8,10,1,20,0.6,30c-0.4,9.6-1,17.3-2.8,26.4
				c-0.4,2-0.9,4-1.4,6c-0.3,1-0.6,1.9-0.9,2.9c0,0.1-0.7,1.9-0.7,1.9c-0.7,1.6-1.4,3.1-2.3,4.6c-0.5,0.9-1,1.7-1.5,2.5
				c-0.1,0.1-0.1,0.1-0.1,0.2c-0.4,0.5-0.8,1-1.2,1.4c-0.4,0.5-0.9,1-1.4,1.4c-0.1,0.1-1.4,1.3-1.4,1.4c-1.2,0.9-2.6,1.7-3.9,2.4
				c0.3-0.2-1.6,0.7-1.9,0.8c-1,0.3-2,0.6-3,0.9c-0.2,0-2.3,0.4-2,0.4c-1.1,0.1-2.2,0.2-3.4,0.2c-1.1,0-2.1,0-3.2-0.1
				c-0.3,0-0.5,0-0.7,0c-0.2,0-0.4-0.1-0.7-0.1c-2.1-0.4-4.1-0.9-6.1-1.6c-0.2-0.1-0.4-0.1-0.6-0.2c-0.1-0.1-0.3-0.2-0.6-0.3
				c-0.9-0.5-1.8-0.9-2.7-1.4c-0.9-0.5-1.8-1-2.6-1.5c-0.5-0.3-1.1-0.7-1.6-1c-0.1-0.1-0.2-0.1-0.3-0.2c-2.7-2.2-5.2-4.6-7.5-7.3
				c-0.2-0.3-1.1-1.5-1.2-1.6c-0.6-0.8-1.2-1.7-1.7-2.5c-1.5-2.2-2.8-4.5-3.9-6.9c0.1,0.1-1-2.3-1-2.2c-0.4-1-0.8-2-1.1-2.9
				c-0.8-2.3-1.6-4.6-2.2-7c-1.2-4.4-2.5-10.8-2.9-13.8c-1.3-10.5-1.8-21-1.1-31.5c0.1-1.2,0.2-2.3,0.3-3.5c0-0.4,0.3-3.1,0.3-3.2
				c0.3-2.6,0.7-5.2,1.2-7.9c1-5.4,2.2-10.7,3.7-15.9c1.6-5.5-2.3-12.1-7.9-13.3c-6-1.2-11.6,2.1-13.3,7.9
				c-5.9,20.9-7.9,43.2-5.4,64.8c2.6,22.2,9.3,45.3,26.6,60.7c16.4,14.5,41.8,19.9,61,7.1c18.6-12.5,22.4-35.5,24.4-56.2
				c2.4-25.6,0.5-51.5-4.9-76.6C283,163.8,276,160.2,270.7,162z"/>
			<path d="M463.4,164.3c5.9,2,8.7,7.5,7.5,13.6c-2.2,10.4-3.4,18-4.3,28.6c-0.8,10-1,20-0.6,30c0.4,9.6,1,17.3,2.8,26.4
				c0.4,2,0.9,4,1.4,6c0.3,1,0.6,1.9,0.9,2.9c0,0.1,0.7,1.9,0.7,1.9c0.7,1.6,1.4,3.1,2.3,4.6c0.5,0.9,1,1.7,1.5,2.5
				c0.1,0.1,0.1,0.1,0.1,0.2c0.4,0.5,0.8,1,1.2,1.4c0.4,0.5,0.9,1,1.4,1.4c0.1,0.1,1.4,1.3,1.4,1.4c1.2,0.9,2.6,1.7,3.9,2.4
				c-0.3-0.2,1.6,0.7,1.9,0.8c1,0.3,2,0.6,3,0.9c0.2,0,2.3,0.4,2,0.4c1.1,0.1,2.2,0.2,3.4,0.2c1.1,0,2.1,0,3.2-0.1
				c0.3,0,0.5,0,0.7,0c0.2,0,0.4-0.1,0.7-0.1c2.1-0.4,4.1-0.9,6.1-1.6c0.2-0.1,0.4-0.1,0.6-0.2c0.1-0.1,0.3-0.2,0.6-0.3
				c0.9-0.5,1.8-0.9,2.7-1.4c0.9-0.5,1.8-1,2.6-1.5c0.5-0.3,1.1-0.7,1.6-1c0.1-0.1,0.2-0.1,0.3-0.2c2.7-2.2,5.2-4.6,7.5-7.3
				c0.2-0.3,1.1-1.5,1.2-1.6c0.6-0.8,1.2-1.7,1.7-2.5c1.5-2.2,2.8-4.5,3.9-6.9c-0.1,0.1,1-2.3,1-2.2c0.4-1,0.8-2,1.1-2.9
				c0.8-2.3,1.6-4.6,2.2-7c1.2-4.4,2.5-10.8,2.9-13.8c1.3-10.5,1.8-21,1.1-31.5c-0.1-1.2-0.2-2.3-0.3-3.5c0-0.4-0.3-3.1-0.3-3.2
				c-0.3-2.6-0.7-5.2-1.2-7.9c-1-5.4-2.2-10.7-3.7-15.9c-1.6-5.5,2.3-12.1,7.9-13.3c6-1.2,11.6,2.1,13.3,7.9
				c5.9,20.9,7.9,43.2,5.4,64.8c-2.6,22.2-9.3,45.3-26.6,60.7c-16.4,14.5-41.8,19.9-61,7.1c-18.6-12.5-22.4-35.5-24.4-56.2
				c-2.4-25.6-0.5-51.5,4.9-76.6C451,166.1,458,162.5,463.4,164.3z"/>
			<path d="M412.2,277.2c-5.6-1-12,1.9-13.3,7.9c-1.1,5.5,1.9,12.2,7.9,13.3c0.6,0.1,1.2,0.3,1.9,0.4c-0.8-0.2,0.9,0.5,1.3,0.7
				c0.1,0.1,0.2,0.1,0.3,0.2c0.1,0.1,0.2,0.2,0.3,0.4c0.1,0.1,0.6,0.7,0.9,1c0.3,0.4,0.6,0.9,0.7,1c0.3,0.4,0.5,1,0.6,1.2
				c0.2,0.6,0.4,1.3,0.6,1.9c-0.8-2,0-0.2,0,0.8c0,0.1,0,0.9,0,1.4c-0.1,0.5-0.3,1.8-0.4,2c-0.1,0.5-0.3,1-0.5,1.5
				c-0.1,0.1-0.7,1.4-0.9,1.7c-0.4,0.7-0.8,1.3-1.2,1.9c0,0-0.9,1.1-1.2,1.4c-0.6,0.6-1.2,1.2-1.8,1.8c0,0-0.1,0.1-0.1,0.1
				c-0.4,0.3-0.8,0.6-1.2,0.8c-0.8,0.5-1.6,1-2.4,1.5c0,0-2.1,1-1.9,1c-1.7,0.7-3.5,1.3-5.3,1.7c-1.1,0.3-2.2,0.5-3.3,0.7
				c-0.3,0.1-0.4,0.1-0.4,0.1c-0.1,0-0.3,0-0.5,0c-2.2,0.2-4.3,0.3-6.5,0.2c-0.4,0-0.6,0-0.8,0c-0.1,0-0.4-0.1-0.7-0.2
				c-0.9-0.2-1.8-0.4-2.6-0.6c-0.3-0.1-0.6-0.2-1-0.3c-0.1,0-0.2-0.1-0.4-0.2c-0.6-0.3-1.1-0.6-1.7-0.9c0.1,0-1.4-1.2-1.5-1.3
				c-0.2-0.2-0.4-0.3-0.5-0.4c-0.1-0.1-0.2-0.3-0.3-0.5c-0.2-0.3-0.6-1.4-0.8-1.7c-0.2-0.9-0.4-2-0.2-0.3
				c-0.6-5.7-4.8-11.2-11.1-10.8c-6.1,0.4-10.6,5-10.8,11.1c0,0.1,0,0.1,0,0.1c-0.2,0.3-0.3,0.8-0.3,1.2c-0.1,0.3-0.2,0.6-0.4,0.8
				c-0.2,0.3-0.3,0.5-0.4,0.6c-0.4,0.5-0.8,0.9-1.3,1.4c-0.6,0.4-1.3,0.8-1.9,1.2c0,0-0.1,0.1-0.1,0.1c-0.6,0.2-1.3,0.4-1.9,0.6
				c-0.1,0-0.1,0-0.2,0.1c-0.6,0-1.3,0.1-1.9,0.1c0,0-0.1,0-0.1,0c-0.8-0.2-1.6-0.4-2.4-0.6c0,0,0,0,0,0c-0.8-0.4-1.6-0.8-2.3-1.2
				c-0.1-0.1-0.2-0.1-0.3-0.2c0,0,0,0-0.1-0.1c-0.6-0.5-1.2-1-1.7-1.5c-0.1-0.1-0.5-0.5-0.8-0.8c-0.3-0.4-1-1.2-1-1.3
				c-0.4-0.6-0.8-1.3-1.2-2c-0.3-0.5-1-2.5-0.2-0.3c-0.3-0.7-0.5-1.4-0.8-2.2c-0.2-0.8-0.4-1.7-0.6-2.5c0-0.2-0.1-0.3-0.1-0.5
				c0-0.1,0-0.1,0-0.3c0.1-1.7-0.1-3.5,0-5.2c0-0.2,0-0.3,0-0.3c0-0.1,0.1-0.3,0.1-0.5c0.2-0.9,0.3-1.7,0.6-2.6
				c0.2-0.9,0.4-1.7,0.7-2.6c0-0.1,0.4-1.3,0.6-1.7c0.2-0.5,0.7-1.5,0.7-1.6c0.5-1,1-1.9,1.5-2.8c2.8-5,1-12.2-4.3-14.9
				c-5.3-2.6-11.9-1-14.9,4.3c-5.6,10.1-8.1,21.3-6.3,32.7c1.7,10.6,8.1,19.9,17.1,25.7c11.5,7.4,25.9,5.4,35.5-2.4
				c4.3,3.4,9.5,5.7,15.3,6.7c12.8,2.1,27.7-0.8,38.3-8.5c10.1-7.3,17.9-19.5,16.6-32.4C434,291.6,425.3,279.6,412.2,277.2z"/>
		</g>
		<g>
			<path class="st0" d="M263.5,336c-2.1-3.2-6-4.3-9.4-2.5c-4.2,2.3-8.4,4.7-12.6,7c0.1-1.4,0-2.9-0.2-4.3c-1-6.4-6.7-11-13.3-10.1
				c-6.1,0.8-10.8,5.6-15.4,9.3c-1,0.8-2,1.6-3,2.4c-0.1-2-0.1-4-0.2-5.9c-0.1-3.3-0.4-6.6-2.2-9.5c-2.2-3.3-6-5.2-10-5
				c-3.4,0.1-6.5,1.5-9.5,3c-3,1.5-5.9,3-8.9,4.5c-1.4,0.7-2.9,1.4-4.3,2.2c0.9-3.7,1.7-7.4,2.6-11.1c0.8-3.5-1.1-7.6-4.8-8.5
				c-3.5-0.8-7.6,1.1-8.5,4.8c-2,8.5-4,17.1-6,25.6c-1.4,6,4.7,10.5,10.1,7.8c4.9-2.5,9.9-5,14.8-7.5l7.4-3.7
				c1.2-0.6,2.5-1.2,3.7-1.9c0.6-0.3,1.2-0.6,1.8-0.9c0,0,0,0,0,0c0,1,0.1,2,0.1,3c0.2,5.6,0.4,11.3,0.5,16.9
				c0.1,2.8,1.7,5.2,4.2,6.3c2.7,1.2,5.3,0.4,7.5-1.4l11.7-9.3c1.9-1.5,3.9-3.1,5.8-4.6c0.5-0.4,1.1-0.9,1.6-1.3
				c0.1-0.1,0.1-0.1,0.2-0.1c0.1-0.1,0.2-0.1,0.3-0.2c-1.4,5-1.7,10.3,0.8,15c1.8,3.3,6.3,4.2,9.4,2.5c7.7-4.3,15.4-8.6,23.1-12.9
				C264.1,343.7,265.4,339.1,263.5,336z"/>
			<path class="st0" d="M478.6,336c2.1-3.2,6-4.3,9.4-2.5c4.2,2.3,8.4,4.7,12.6,7c-0.1-1.4,0-2.9,0.2-4.3c1-6.4,6.7-11,13.3-10.1
				c6.1,0.8,10.8,5.6,15.4,9.3c1,0.8,2,1.6,3,2.4c0.1-2,0.1-4,0.2-5.9c0.1-3.3,0.4-6.6,2.2-9.5c2.2-3.3,6-5.2,10-5
				c3.4,0.1,6.5,1.5,9.5,3c3,1.5,5.9,3,8.9,4.5c1.4,0.7,2.9,1.4,4.3,2.2c-0.9-3.7-1.7-7.4-2.6-11.1c-0.8-3.5,1.1-7.6,4.8-8.5
				c3.5-0.8,7.6,1.1,8.5,4.8c2,8.5,4,17.1,6,25.6c1.4,6-4.7,10.5-10.1,7.8c-4.9-2.5-9.9-5-14.8-7.5l-7.4-3.7
				c-1.2-0.6-2.5-1.2-3.7-1.9c-0.6-0.3-1.2-0.6-1.8-0.9c0,0,0,0,0,0c0,1-0.1,2-0.1,3c-0.2,5.6-0.4,11.3-0.5,16.9
				c-0.1,2.8-1.7,5.2-4.2,6.3c-2.7,1.2-5.3,0.4-7.5-1.4l-11.7-9.3c-1.9-1.5-3.9-3.1-5.8-4.6c-0.5-0.4-1.1-0.9-1.6-1.3
				c-0.1-0.1-0.1-0.1-0.2-0.1c-0.1-0.1-0.2-0.1-0.3-0.2c1.4,5,1.7,10.3-0.8,15c-1.8,3.3-6.3,4.2-9.4,2.5
				c-7.7-4.3-15.4-8.6-23.1-12.9C477.9,343.7,476.6,339.1,478.6,336z"/>
		</g>
	</g>
	<g>
		<path d="M694,282.5c-1.9,5.6-4.1,9.7-6.7,12.3c-2.6,2.6-9.1,4.8-19.6,6.8c-10.5,1.9-21.6,2.9-33.3,2.9c-18.3,0-27.5-6.3-27.5-18.8
			c0-3.5,1-10.2,2.9-19.9l16.8-84.7c1-4.9,1.5-8.4,1.5-10.5c0-2-0.7-3.8-2.1-5.4c7.6-2.9,13-4.3,16-4.3c3.6,0,5.3,2,5.3,6.1
			c0,1-0.9,6.1-2.8,15.2l-15,75.7c-2.2,10.9-3.3,18.4-3.3,22.7c0,7.2,8,10.8,23.9,10.8C664.3,291.2,679,288.3,694,282.5z"/>
		<path d="M784,248.6c-7.4,15.2-16.5,28.2-27.3,38.9c-10.8,10.7-20.2,16-28.2,16c-6.1,0-11-2.7-14.6-8.2c-3.7-5.4-5.5-12.7-5.5-21.7
			c0-18,5.5-33.8,16.4-47.5c10.9-13.7,23.5-20.5,37.9-20.5c8.7,0,18.1,2.7,28.2,8.1c1.5-5.3,7.6-8,18.3-8c0.7,0,1.8,0,3.4,0.1
			c-3.3,5-5.8,11.8-7.5,20.5l-1.5,7.3c-1.7,8.2-2.5,17.7-2.5,28.6c0,12.6,2.9,18.9,8.8,18.9c6.2,0,14.7-5.2,25.5-15.6
			c10.8-10.4,21.4-23.6,31.8-39.6l6.7,4.7c-10.6,19-22.8,34.8-36.5,47.5c-13.7,12.7-25.5,19-35.3,19c-12.4,0-18.6-10.4-18.6-31.1
			C783.5,261.7,783.7,255.9,784,248.6z M788.1,228c-12.1-7.9-22.1-11.8-30.2-11.8c-8.7,0-16.2,5.3-22.5,15.8
			c-6.3,10.6-9.5,23.1-9.5,37.6c0,11.6,3.8,17.4,11.4,17.4c8.2,0,24-18.1,47.3-54.2C784.8,232.4,786,230.8,788.1,228z"/>
		<path d="M878.5,270.4c20.4-43.2,38.8-64.8,55-64.8c12.7,0,19.1,12.7,19.1,38l0.2,10.4c0,12.1,0.6,20.4,1.9,25.1
			c1.2,4.6,3.5,6.9,6.8,6.9c4.9,0,10.6-3.9,16.9-11.8c6.3-7.9,16.6-23.7,30.8-47.5l7.2,4.2c-12.7,23.9-24,41.6-34,53.1
			c-10,11.6-19,17.3-26.9,17.3c-7.3,0-12.4-3.5-15.4-10.6c-3-7.1-4.4-19.3-4.4-36.8l-0.1-7.4c0-9.4-0.6-16.1-1.8-19.9
			c-1.2-3.8-3.3-5.7-6.3-5.7c-7.6,0-19.8,15.2-36.7,45.5c-4.1,7.4-6.8,12.2-8,14.3c-4.4,7.7-6.6,13.3-6.6,16.7c0,1.4,0.4,2.7,1.1,4
			c-3.3,1.4-6.2,2.1-8.5,2.1c-5.8,0-8.7-3.2-8.7-9.7c0-1.8,0.7-10.1,2.2-24.8l1.9-18.7c0.9-7.9,1.3-14.1,1.3-18.5
			c0-6.1-1.4-10.9-4.1-14.4c1.2-0.4,3.2-1.1,6-2.1c3.6-1.3,6.4-1.9,8.5-1.9c4.5,0,6.7,3.3,6.7,9.8c0,3.5-0.4,9.4-1.3,17.8
			c-0.2,1.8-0.3,3.6-0.5,5.3L878.5,270.4z"/>
		<path d="M1062.9,249.5c-5.6,11.5-13.7,21.6-24.2,30.3c-10.6,8.7-20.1,13-28.5,13c-6.3,0-11.4-2.1-15.4-6.4c-4-4.3-6-9.8-6-16.6
			c0-15.9,6-30.6,18.1-44c12.1-13.5,25.2-20.2,39.5-20.2c7.4,0,15.3,2.1,23.8,6.3c1.2-5.5,2.8-9,5-10.4c2.2-1.4,7.7-2.6,16.7-3.5
			c-4.5,9-8.8,30.5-12.9,64.5l-1.1,8.8c24.7-14.8,43.7-30,57.1-45.5l7.2,4.6c-12.7,16.5-34.3,34.5-65,54c-0.2,2.2-0.3,3.9-0.3,5
			c-0.9,14.4-2.4,25.1-4.6,31.9c-2.2,6.8-6.1,13.3-11.8,19.5c-11.2,12-24.7,18-40.7,18c-8.6,0-15.5-2-20.9-6.1s-8-9.3-8-15.7
			c0-6.3,2.3-11.8,6.9-16.5c4.6-4.7,13.3-10.5,26.1-17.3c8.5-4.4,20.4-11,35.8-19.8L1062.9,249.5z M1067.3,227
			c-7.5-7.9-15.7-11.9-24.7-11.9c-8.5,0-16.5,5.3-24.1,16c-7.5,10.7-11.3,22-11.3,34c0,8.5,3.1,12.8,9.4,12.8
			c6.1,0,14.2-5.1,24.3-15.2C1051.1,252.6,1059.9,240.7,1067.3,227z M1059.1,294.9c-3.3,2-10.1,5.9-20.3,11.6
			c-19.9,11.2-29.9,21.1-29.9,29.7c0,3.8,1.6,6.9,4.8,9.4c3.2,2.5,7.3,3.7,12.3,3.7C1048.1,349.2,1059.1,331.1,1059.1,294.9z"/>
	</g>
</g>
<g>
	<g>
		<path d="M227.2,489.2c-0.7,0-1.3-0.2-1.7-0.6c-0.4-0.4-0.6-1-0.6-1.7v-33.2h-12.5c-0.7,0-1.2-0.2-1.6-0.6
			c-0.4-0.4-0.6-0.9-0.6-1.4c0-0.6,0.2-1.1,0.6-1.4c0.4-0.3,0.9-0.5,1.6-0.5H242c0.7,0,1.2,0.2,1.6,0.5c0.4,0.3,0.6,0.8,0.6,1.4
			c0,0.6-0.2,1.1-0.6,1.5c-0.4,0.4-0.9,0.5-1.6,0.5h-12.5v33.2c0,0.7-0.2,1.3-0.6,1.7C228.5,489,228,489.2,227.2,489.2z"/>
		<path d="M250.3,489.2c-0.7,0-1.3-0.2-1.7-0.6c-0.4-0.4-0.6-1-0.6-1.7v-35.3c0-0.7,0.2-1.3,0.6-1.7c0.4-0.4,0.9-0.6,1.7-0.6
			c0.7,0,1.3,0.2,1.7,0.6c0.4,0.4,0.6,1,0.6,1.7v16.3h-0.7c0.8-2.1,2-3.8,3.8-4.9c1.8-1.1,3.8-1.6,6.1-1.6c2.1,0,3.9,0.4,5.4,1.2
			c1.4,0.8,2.5,2,3.2,3.5c0.7,1.6,1.1,3.6,1.1,6v14.9c0,0.7-0.2,1.3-0.6,1.7c-0.4,0.4-0.9,0.6-1.6,0.6c-0.7,0-1.3-0.2-1.7-0.6
			c-0.4-0.4-0.6-1-0.6-1.7v-14.6c0-2.5-0.5-4.4-1.5-5.5c-1-1.2-2.5-1.7-4.7-1.7c-2.5,0-4.4,0.8-5.9,2.3c-1.5,1.5-2.2,3.6-2.2,6.1
			v13.4C252.6,488.4,251.8,489.2,250.3,489.2z"/>
		<path d="M291.7,489.3c-2.8,0-5.3-0.6-7.3-1.7c-2.1-1.1-3.6-2.7-4.8-4.8c-1.1-2.1-1.7-4.5-1.7-7.4c0-2.8,0.6-5.3,1.7-7.3
			c1.1-2.1,2.6-3.7,4.6-4.9c1.9-1.2,4.2-1.8,6.7-1.8c1.8,0,3.4,0.3,4.9,0.9c1.4,0.6,2.7,1.5,3.7,2.6c1,1.1,1.8,2.5,2.3,4.2
			c0.5,1.6,0.8,3.5,0.8,5.5c0,0.6-0.2,1-0.5,1.3c-0.3,0.3-0.8,0.4-1.4,0.4h-19.3v-2.9h18.2l-0.9,0.7c0-2-0.3-3.7-0.9-5.1
			c-0.6-1.4-1.5-2.4-2.6-3.2c-1.1-0.7-2.5-1.1-4.2-1.1c-1.9,0-3.5,0.4-4.8,1.3c-1.3,0.9-2.3,2.1-3,3.6c-0.7,1.5-1,3.3-1,5.4v0.3
			c0,3.4,0.8,6,2.5,7.8c1.6,1.8,4,2.7,7,2.7c1.3,0,2.5-0.2,3.7-0.5c1.2-0.3,2.4-0.9,3.6-1.7c0.5-0.3,1-0.5,1.4-0.5
			c0.4,0,0.8,0.1,1,0.4c0.3,0.2,0.4,0.5,0.5,0.9c0.1,0.4,0.1,0.7-0.1,1.1c-0.2,0.4-0.5,0.8-1,1.1c-1.2,0.9-2.7,1.6-4.3,2.1
			C295,489.1,293.4,489.3,291.7,489.3z"/>
		<path d="M325.9,489.2c-0.6,0-1-0.2-1.2-0.6c-0.2-0.4-0.3-0.9-0.1-1.6l1.7-8.7l1.6,0.4H323c-0.4,0-0.8-0.1-1.1-0.2
			c-0.3-0.1-0.5-0.3-0.7-0.6c-0.1-0.2-0.2-0.5-0.2-0.9c0-0.6,0.2-1,0.5-1.2c0.4-0.3,0.8-0.4,1.5-0.4h5.3l-1.8,0.4l2.7-13.8l1.3,0.6
			h-6.5c-0.4,0-0.8-0.1-1.1-0.2c-0.3-0.1-0.5-0.3-0.7-0.6s-0.2-0.6-0.2-0.9c0-0.6,0.2-1,0.5-1.2c0.4-0.3,0.8-0.4,1.5-0.4h7l-1.5,0.4
			l1.7-8.6c0.1-0.7,0.4-1.1,0.7-1.4c0.4-0.3,0.8-0.4,1.4-0.4c0.6,0,1,0.2,1.2,0.6c0.2,0.4,0.3,0.9,0.1,1.6l-1.5,7.9h8.8l1.6-8.2
			c0.1-0.7,0.4-1.1,0.8-1.4c0.4-0.3,0.8-0.4,1.3-0.4c0.6,0,1,0.2,1.2,0.6c0.2,0.4,0.3,0.9,0.2,1.6l-1.6,8.3l-1.3-0.4h4.4
			c0.4,0,0.8,0.1,1.1,0.2c0.3,0.1,0.5,0.3,0.7,0.5c0.1,0.2,0.2,0.5,0.2,0.9c0,0.5-0.2,0.9-0.5,1.2c-0.3,0.3-0.8,0.4-1.5,0.4h-5
			l1.5-0.6l-2.7,13.8l-1.4-0.4h6.5c0.4,0,0.8,0.1,1.1,0.2c0.3,0.1,0.5,0.3,0.7,0.6c0.1,0.2,0.2,0.5,0.2,0.9c0,0.5-0.2,0.9-0.5,1.2
			c-0.3,0.3-0.8,0.4-1.5,0.4h-7l1.5-0.4l-1.8,9c-0.1,0.7-0.3,1.1-0.7,1.4c-0.4,0.3-0.8,0.4-1.4,0.4s-1-0.2-1.2-0.6
			c-0.3-0.4-0.3-0.9-0.2-1.6l1.6-8.3h-8.8l-1.7,8.7c-0.1,0.7-0.3,1.1-0.7,1.4C326.9,489.1,326.4,489.2,325.9,489.2z M330.2,475.4
			h8.8l2.6-12.8h-8.8L330.2,475.4z"/>
		<path d="M361.1,488.8c-0.7,0-1.2-0.2-1.6-0.5c-0.4-0.4-0.6-0.8-0.6-1.5s0.2-1.1,0.6-1.4c0.4-0.3,0.9-0.5,1.6-0.5h7.2v-31.4h2.4
			l-8,5.3c-0.5,0.3-0.9,0.4-1.4,0.3c-0.4,0-0.8-0.2-1.1-0.5s-0.5-0.6-0.6-1c-0.1-0.4-0.1-0.8,0.1-1.2c0.1-0.4,0.5-0.8,0.9-1.1l7.7-5
			c0.5-0.3,0.9-0.5,1.4-0.7c0.4-0.2,0.9-0.3,1.3-0.3c0.5,0,1,0.2,1.3,0.5c0.4,0.3,0.5,0.8,0.5,1.5v33.7h6.7c0.7,0,1.2,0.2,1.6,0.5
			c0.4,0.3,0.6,0.8,0.6,1.4c0,0.7-0.2,1.2-0.6,1.5c-0.4,0.3-0.9,0.5-1.6,0.5H361.1z"/>
		<path d="M407.2,489.2c-0.7,0-1.3-0.2-1.7-0.6c-0.4-0.4-0.6-1-0.6-1.7V452c0-0.8,0.2-1.4,0.6-1.7c0.4-0.4,1-0.6,1.7-0.6h13.1
			c4.2,0,7.4,1,9.6,3.1c2.3,2.1,3.4,4.9,3.4,8.7c0,3.7-1.1,6.6-3.4,8.7c-2.3,2.1-5.5,3.1-9.6,3.1h-10.9v13.6c0,0.7-0.2,1.3-0.6,1.7
			C408.5,489,407.9,489.2,407.2,489.2z M409.4,469.4h10.4c3,0,5.3-0.7,6.8-2c1.5-1.3,2.3-3.3,2.3-5.9c0-2.6-0.8-4.6-2.3-6
			c-1.5-1.3-3.8-2-6.8-2h-10.4V469.4z"/>
		<path d="M441.6,489.2c-0.7,0-1.3-0.2-1.7-0.6c-0.4-0.4-0.6-1-0.6-1.7v-23.1c0-0.7,0.2-1.3,0.6-1.7c0.4-0.4,0.9-0.6,1.6-0.6
			s1.2,0.2,1.6,0.6c0.4,0.4,0.6,1,0.6,1.7v4.5h-0.6c0.6-2.2,1.7-3.9,3.4-5s3.7-1.8,6.2-1.9c0.6,0,1,0.1,1.3,0.4s0.5,0.7,0.6,1.4
			c0,0.6-0.1,1.1-0.4,1.5c-0.3,0.4-0.9,0.6-1.6,0.7l-0.9,0.1c-2.5,0.2-4.4,1-5.8,2.4s-2,3.3-2,5.7v13.4c0,0.7-0.2,1.3-0.6,1.7
			C443,489,442.4,489.2,441.6,489.2z"/>
		<path d="M470.4,489.3c-2.6,0-4.9-0.6-6.8-1.7c-1.9-1.1-3.4-2.8-4.5-4.9c-1.1-2.1-1.6-4.6-1.6-7.4c0-2.1,0.3-4.1,0.9-5.8
			c0.6-1.7,1.5-3.2,2.6-4.4c1.1-1.2,2.5-2.2,4.1-2.8c1.6-0.6,3.3-1,5.3-1c2.6,0,4.9,0.6,6.8,1.7c1.9,1.1,3.4,2.8,4.5,4.9
			c1.1,2.1,1.6,4.6,1.6,7.4c0,2.1-0.3,4.1-0.9,5.8c-0.6,1.7-1.5,3.2-2.6,4.4c-1.1,1.2-2.5,2.2-4.1,2.8
			C474.2,489,472.4,489.3,470.4,489.3z M470.4,485.7c1.7,0,3.1-0.4,4.4-1.2c1.3-0.8,2.2-2,2.9-3.5c0.7-1.6,1-3.4,1-5.6
			c0-3.4-0.7-5.9-2.2-7.7c-1.5-1.8-3.5-2.7-6.1-2.7c-1.7,0-3.2,0.4-4.4,1.2c-1.2,0.8-2.2,2-2.9,3.5c-0.7,1.5-1,3.4-1,5.7
			c0,3.3,0.8,5.9,2.3,7.7C465.9,484.8,467.9,485.7,470.4,485.7z"/>
		<path d="M502,499.3c-2,0-3.9-0.2-5.7-0.7c-1.9-0.5-3.6-1.2-5.1-2.2c-0.4-0.3-0.7-0.6-0.9-0.9c-0.1-0.4-0.2-0.7-0.1-1.1
			s0.2-0.7,0.5-0.9s0.6-0.5,0.9-0.5c0.4-0.1,0.7,0,1.1,0.2c1.6,1,3.2,1.7,4.7,2.1c1.5,0.4,2.9,0.6,4.4,0.6c2.6,0,4.6-0.7,6-2.1
			c1.3-1.4,2-3.4,2-6.1v-6.3h0.6c-0.6,2.1-1.7,3.8-3.5,5.1c-1.8,1.3-3.9,1.9-6.3,1.9c-2.5,0-4.6-0.6-6.4-1.7
			c-1.8-1.1-3.2-2.7-4.2-4.7c-1-2-1.5-4.4-1.5-7c0-2,0.3-3.8,0.8-5.5c0.6-1.6,1.4-3,2.4-4.2c1.1-1.2,2.3-2.1,3.8-2.7
			c1.5-0.6,3.2-1,5-1c2.4,0,4.5,0.6,6.3,1.9c1.8,1.2,2.9,2.9,3.4,5l-0.6,0.7v-5.2c0-0.7,0.2-1.3,0.6-1.7c0.4-0.4,0.9-0.6,1.6-0.6
			c0.7,0,1.3,0.2,1.7,0.6c0.4,0.4,0.6,1,0.6,1.7v23.1c0,4.1-1,7.2-3.1,9.3C509,498.2,506,499.3,502,499.3z M501.3,484.5
			c1.7,0,3.2-0.4,4.5-1.2c1.3-0.8,2.2-1.9,2.9-3.4c0.7-1.5,1-3.2,1-5.2c0-3-0.8-5.4-2.3-7.1c-1.5-1.8-3.6-2.6-6.2-2.6
			c-1.7,0-3.2,0.4-4.4,1.2c-1.3,0.8-2.2,1.9-2.9,3.4c-0.7,1.5-1,3.2-1,5.2c0,3,0.8,5.4,2.3,7.2S498.8,484.5,501.3,484.5z"/>
		<path d="M524.8,489.2c-0.7,0-1.3-0.2-1.7-0.6c-0.4-0.4-0.6-1-0.6-1.7v-23.1c0-0.7,0.2-1.3,0.6-1.7c0.4-0.4,0.9-0.6,1.6-0.6
			c0.7,0,1.2,0.2,1.6,0.6c0.4,0.4,0.6,1,0.6,1.7v4.5h-0.6c0.6-2.2,1.7-3.9,3.4-5c1.7-1.2,3.7-1.8,6.2-1.9c0.6,0,1,0.1,1.3,0.4
			c0.3,0.3,0.5,0.7,0.6,1.4c0,0.6-0.1,1.1-0.4,1.5c-0.3,0.4-0.9,0.6-1.6,0.7l-0.9,0.1c-2.5,0.2-4.4,1-5.8,2.4c-1.4,1.4-2,3.3-2,5.7
			v13.4c0,0.7-0.2,1.3-0.6,1.7C526.1,489,525.6,489.2,524.8,489.2z"/>
		<path d="M550.9,489.3c-1.8,0-3.5-0.4-5-1.1c-1.5-0.7-2.6-1.7-3.5-3c-0.9-1.3-1.3-2.7-1.3-4.2c0-2,0.5-3.6,1.5-4.7
			c1-1.1,2.7-2,5-2.4c2.3-0.5,5.6-0.7,9.6-0.7h2.5v2.9h-2.4c-3,0-5.4,0.1-7.1,0.4c-1.7,0.3-2.9,0.7-3.6,1.4s-1,1.6-1,2.8
			c0,1.5,0.5,2.8,1.6,3.7c1.1,1,2.5,1.4,4.3,1.4c1.5,0,2.8-0.4,3.9-1.1s2-1.7,2.7-2.9c0.6-1.2,1-2.6,1-4.2v-6.3c0-2.3-0.5-3.9-1.4-5
			s-2.4-1.5-4.5-1.5c-1.3,0-2.6,0.2-3.9,0.5c-1.3,0.3-2.7,0.9-4.1,1.6c-0.5,0.3-1,0.3-1.3,0.3c-0.4-0.1-0.7-0.3-0.9-0.6
			c-0.2-0.3-0.4-0.6-0.4-1c0-0.4,0-0.8,0.2-1.1c0.2-0.4,0.5-0.7,1-0.9c1.6-0.8,3.2-1.4,4.8-1.8c1.6-0.4,3.1-0.6,4.5-0.6
			c2.3,0,4.3,0.4,5.8,1.1c1.5,0.8,2.6,1.9,3.4,3.4c0.7,1.5,1.1,3.5,1.1,5.9v15c0,0.7-0.2,1.3-0.5,1.7s-0.9,0.6-1.5,0.6
			c-0.7,0-1.2-0.2-1.6-0.6c-0.4-0.4-0.6-1-0.6-1.7v-4.3h0.5c-0.3,1.4-0.9,2.6-1.7,3.6s-1.9,1.8-3.1,2.3
			C553.8,489,552.4,489.3,550.9,489.3z"/>
		<path d="M574.1,489.2c-0.7,0-1.3-0.2-1.7-0.6c-0.4-0.4-0.6-1-0.6-1.7v-23.1c0-0.7,0.2-1.3,0.6-1.7c0.4-0.4,0.9-0.6,1.6-0.6
			c0.7,0,1.2,0.2,1.6,0.6c0.4,0.4,0.6,1,0.6,1.7v4.9l-0.6-0.8c0.7-2.1,1.8-3.7,3.4-4.8s3.4-1.7,5.6-1.7c2.3,0,4.1,0.5,5.6,1.6
			c1.4,1.1,2.4,2.8,2.9,5.1h-0.8c0.7-2.1,1.9-3.7,3.6-4.9c1.7-1.2,3.7-1.8,6-1.8c2,0,3.7,0.4,5,1.2s2.3,2,3,3.5c0.7,1.6,1,3.6,1,6
			v14.9c0,0.7-0.2,1.3-0.6,1.7c-0.4,0.4-1,0.6-1.7,0.6c-0.7,0-1.2-0.2-1.6-0.6c-0.4-0.4-0.6-1-0.6-1.7v-14.6c0-2.5-0.4-4.3-1.3-5.5
			c-0.9-1.2-2.3-1.7-4.3-1.7c-2.2,0-4,0.8-5.2,2.3s-1.9,3.6-1.9,6.2v13.3c0,0.7-0.2,1.3-0.6,1.7c-0.4,0.4-1,0.6-1.7,0.6
			c-0.7,0-1.2-0.2-1.6-0.6c-0.4-0.4-0.6-1-0.6-1.7v-14.6c0-2.5-0.4-4.3-1.3-5.5c-0.9-1.2-2.3-1.7-4.3-1.7c-2.2,0-4,0.8-5.2,2.3
			s-1.9,3.6-1.9,6.2v13.3C576.4,488.4,575.7,489.2,574.1,489.2z"/>
		<path d="M621.6,489.2c-0.7,0-1.3-0.2-1.7-0.6c-0.4-0.4-0.6-1-0.6-1.7v-23.1c0-0.7,0.2-1.3,0.6-1.7c0.4-0.4,0.9-0.6,1.6-0.6
			s1.2,0.2,1.6,0.6c0.4,0.4,0.6,1,0.6,1.7v4.9l-0.6-0.8c0.7-2.1,1.8-3.7,3.4-4.8c1.6-1.1,3.4-1.7,5.6-1.7c2.3,0,4.2,0.5,5.6,1.6
			c1.4,1.1,2.4,2.8,2.9,5.1h-0.8c0.7-2.1,1.9-3.7,3.6-4.9c1.7-1.2,3.7-1.8,6-1.8c2,0,3.7,0.4,5,1.2c1.3,0.8,2.3,2,3,3.5
			c0.7,1.6,1,3.6,1,6v14.9c0,0.7-0.2,1.3-0.6,1.7c-0.4,0.4-1,0.6-1.7,0.6c-0.7,0-1.2-0.2-1.6-0.6c-0.4-0.4-0.6-1-0.6-1.7v-14.6
			c0-2.5-0.4-4.3-1.3-5.5c-0.9-1.2-2.3-1.7-4.3-1.7c-2.2,0-4,0.8-5.2,2.3s-1.9,3.6-1.9,6.2v13.3c0,0.7-0.2,1.3-0.6,1.7
			c-0.4,0.4-1,0.6-1.7,0.6c-0.7,0-1.2-0.2-1.6-0.6c-0.4-0.4-0.6-1-0.6-1.7v-14.6c0-2.5-0.4-4.3-1.3-5.5c-0.9-1.2-2.3-1.7-4.3-1.7
			c-2.2,0-4,0.8-5.2,2.3s-1.9,3.6-1.9,6.2v13.3C623.9,488.4,623.1,489.2,621.6,489.2z"/>
		<path d="M669,455.4c-0.9,0-1.6-0.2-2.2-0.7c-0.5-0.5-0.8-1.2-0.8-2c0-0.9,0.3-1.6,0.8-2c0.5-0.5,1.2-0.7,2.2-0.7
			c1,0,1.7,0.2,2.2,0.7c0.5,0.5,0.7,1.1,0.7,2c0,0.9-0.2,1.5-0.7,2C670.7,455.1,669.9,455.4,669,455.4z M669,489.1
			c-0.7,0-1.3-0.2-1.7-0.6c-0.4-0.4-0.6-1-0.6-1.8V464c0-0.8,0.2-1.4,0.6-1.8c0.4-0.4,0.9-0.6,1.7-0.6c0.7,0,1.3,0.2,1.7,0.6
			c0.4,0.4,0.6,1,0.6,1.8v22.7c0,0.8-0.2,1.4-0.6,1.8C670.3,488.9,669.7,489.1,669,489.1z"/>
		<path d="M681.8,489.2c-0.7,0-1.3-0.2-1.7-0.6c-0.4-0.4-0.6-1-0.6-1.7v-23.1c0-0.7,0.2-1.3,0.6-1.7c0.4-0.4,0.9-0.6,1.6-0.6
			c0.7,0,1.2,0.2,1.6,0.6c0.4,0.4,0.6,1,0.6,1.7v4.8l-0.6-0.7c0.8-2.1,2-3.8,3.8-4.9c1.8-1.1,3.8-1.6,6.1-1.6c2.1,0,3.9,0.4,5.4,1.2
			c1.4,0.8,2.5,2,3.2,3.5c0.7,1.6,1.1,3.6,1.1,6v14.9c0,0.7-0.2,1.3-0.6,1.7c-0.4,0.4-0.9,0.6-1.6,0.6c-0.7,0-1.3-0.2-1.7-0.6
			c-0.4-0.4-0.6-1-0.6-1.7v-14.6c0-2.5-0.5-4.4-1.5-5.5c-1-1.2-2.5-1.7-4.7-1.7c-2.5,0-4.4,0.8-5.9,2.3c-1.5,1.5-2.2,3.6-2.2,6.1
			v13.4C684.1,488.4,683.4,489.2,681.8,489.2z"/>
		<path d="M723,499.3c-2,0-3.9-0.2-5.7-0.7c-1.9-0.5-3.6-1.2-5.1-2.2c-0.4-0.3-0.7-0.6-0.9-0.9c-0.1-0.4-0.2-0.7-0.1-1.1
			s0.2-0.7,0.5-0.9s0.6-0.5,0.9-0.5c0.4-0.1,0.7,0,1.1,0.2c1.6,1,3.2,1.7,4.7,2.1c1.5,0.4,2.9,0.6,4.4,0.6c2.6,0,4.6-0.7,6-2.1
			c1.3-1.4,2-3.4,2-6.1v-6.3h0.6c-0.6,2.1-1.7,3.8-3.5,5.1c-1.8,1.3-3.9,1.9-6.3,1.9c-2.5,0-4.6-0.6-6.4-1.7
			c-1.8-1.1-3.2-2.7-4.2-4.7c-1-2-1.5-4.4-1.5-7c0-2,0.3-3.8,0.8-5.5c0.6-1.6,1.4-3,2.4-4.2c1.1-1.2,2.3-2.1,3.8-2.7
			c1.5-0.6,3.2-1,5-1c2.4,0,4.5,0.6,6.3,1.9c1.8,1.2,2.9,2.9,3.4,5l-0.6,0.7v-5.2c0-0.7,0.2-1.3,0.6-1.7c0.4-0.4,0.9-0.6,1.6-0.6
			c0.7,0,1.3,0.2,1.7,0.6c0.4,0.4,0.6,1,0.6,1.7v23.1c0,4.1-1,7.2-3.1,9.3C730.1,498.2,727,499.3,723,499.3z M722.4,484.5
			c1.7,0,3.2-0.4,4.5-1.2c1.3-0.8,2.2-1.9,2.9-3.4c0.7-1.5,1-3.2,1-5.2c0-3-0.8-5.4-2.3-7.1c-1.5-1.8-3.6-2.6-6.2-2.6
			c-1.7,0-3.2,0.4-4.4,1.2c-1.3,0.8-2.2,1.9-2.9,3.4c-0.7,1.5-1,3.2-1,5.2c0,3,0.8,5.4,2.3,7.2S719.8,484.5,722.4,484.5z"/>
		<path d="M760.9,488.8c-0.7,0-1.3-0.2-1.7-0.6c-0.4-0.4-0.6-1-0.6-1.7v-34.6c0-0.8,0.2-1.4,0.6-1.8c0.4-0.4,1-0.6,1.7-0.6
			c0.7,0,1.3,0.2,1.7,0.6c0.4,0.4,0.6,1,0.6,1.8v33h18.2c0.7,0,1.2,0.2,1.6,0.5c0.4,0.4,0.6,0.8,0.6,1.5s-0.2,1.1-0.6,1.5
			c-0.4,0.4-0.9,0.5-1.6,0.5H760.9z"/>
		<path d="M796.5,489.3c-1.8,0-3.5-0.4-5-1.1c-1.5-0.7-2.6-1.7-3.5-3c-0.9-1.3-1.3-2.7-1.3-4.2c0-2,0.5-3.6,1.5-4.7
			c1-1.1,2.7-2,5-2.4c2.3-0.5,5.6-0.7,9.6-0.7h2.5v2.9h-2.4c-3,0-5.4,0.1-7.1,0.4c-1.7,0.3-2.9,0.7-3.6,1.4s-1,1.6-1,2.8
			c0,1.5,0.5,2.8,1.6,3.7c1.1,1,2.5,1.4,4.3,1.4c1.5,0,2.8-0.4,3.9-1.1s2-1.7,2.7-2.9c0.6-1.2,1-2.6,1-4.2v-6.3c0-2.3-0.5-3.9-1.4-5
			s-2.4-1.5-4.5-1.5c-1.3,0-2.6,0.2-3.9,0.5c-1.3,0.3-2.7,0.9-4.1,1.6c-0.5,0.3-1,0.3-1.3,0.3c-0.4-0.1-0.7-0.3-0.9-0.6
			c-0.2-0.3-0.4-0.6-0.4-1c0-0.4,0-0.8,0.2-1.1c0.2-0.4,0.5-0.7,1-0.9c1.6-0.8,3.2-1.4,4.8-1.8c1.6-0.4,3.1-0.6,4.5-0.6
			c2.3,0,4.3,0.4,5.8,1.1c1.5,0.8,2.6,1.9,3.4,3.4c0.7,1.5,1.1,3.5,1.1,5.9v15c0,0.7-0.2,1.3-0.5,1.7s-0.9,0.6-1.5,0.6
			c-0.7,0-1.2-0.2-1.6-0.6c-0.4-0.4-0.6-1-0.6-1.7v-4.3h0.5c-0.3,1.4-0.9,2.6-1.7,3.6s-1.9,1.8-3.1,2.3
			C799.4,489,798,489.3,796.5,489.3z"/>
		<path d="M819.7,489.2c-0.7,0-1.3-0.2-1.7-0.6c-0.4-0.4-0.6-1-0.6-1.7v-23.1c0-0.7,0.2-1.3,0.6-1.7c0.4-0.4,0.9-0.6,1.6-0.6
			s1.2,0.2,1.6,0.6c0.4,0.4,0.6,1,0.6,1.7v4.8l-0.6-0.7c0.8-2.1,2-3.8,3.8-4.9c1.8-1.1,3.8-1.6,6.1-1.6c2.1,0,3.9,0.4,5.4,1.2
			c1.4,0.8,2.5,2,3.2,3.5c0.7,1.6,1.1,3.6,1.1,6v14.9c0,0.7-0.2,1.3-0.6,1.7c-0.4,0.4-0.9,0.6-1.6,0.6c-0.7,0-1.3-0.2-1.7-0.6
			c-0.4-0.4-0.6-1-0.6-1.7v-14.6c0-2.5-0.5-4.4-1.5-5.5c-1-1.2-2.5-1.7-4.7-1.7c-2.5,0-4.4,0.8-5.9,2.3c-1.5,1.5-2.2,3.6-2.2,6.1
			v13.4C821.9,488.4,821.2,489.2,819.7,489.2z"/>
		<path d="M860.9,499.3c-2,0-3.9-0.2-5.7-0.7c-1.9-0.5-3.6-1.2-5.1-2.2c-0.4-0.3-0.7-0.6-0.9-0.9c-0.1-0.4-0.2-0.7-0.1-1.1
			s0.2-0.7,0.5-0.9s0.6-0.5,0.9-0.5c0.4-0.1,0.7,0,1.1,0.2c1.6,1,3.2,1.7,4.7,2.1c1.5,0.4,2.9,0.6,4.4,0.6c2.6,0,4.6-0.7,6-2.1
			c1.3-1.4,2-3.4,2-6.1v-6.3h0.6c-0.6,2.1-1.7,3.8-3.5,5.1c-1.8,1.3-3.9,1.9-6.3,1.9c-2.5,0-4.6-0.6-6.4-1.7
			c-1.8-1.1-3.2-2.7-4.2-4.7c-1-2-1.5-4.4-1.5-7c0-2,0.3-3.8,0.8-5.5c0.6-1.6,1.4-3,2.4-4.2c1.1-1.2,2.3-2.1,3.8-2.7
			c1.5-0.6,3.2-1,5-1c2.4,0,4.5,0.6,6.3,1.9c1.8,1.2,2.9,2.9,3.4,5l-0.6,0.7v-5.2c0-0.7,0.2-1.3,0.6-1.7c0.4-0.4,0.9-0.6,1.6-0.6
			c0.7,0,1.3,0.2,1.7,0.6c0.4,0.4,0.6,1,0.6,1.7v23.1c0,4.1-1,7.2-3.1,9.3C867.9,498.2,864.9,499.3,860.9,499.3z M860.2,484.5
			c1.7,0,3.2-0.4,4.5-1.2c1.3-0.8,2.2-1.9,2.9-3.4c0.7-1.5,1-3.2,1-5.2c0-3-0.8-5.4-2.3-7.1c-1.5-1.8-3.6-2.6-6.2-2.6
			c-1.7,0-3.2,0.4-4.4,1.2c-1.3,0.8-2.2,1.9-2.9,3.4c-0.7,1.5-1,3.2-1,5.2c0,3,0.8,5.4,2.3,7.2S857.6,484.5,860.2,484.5z"/>
		<path d="M889.9,489.3c-1.8,0-3.5-0.4-5-1.1c-1.5-0.7-2.6-1.7-3.5-3c-0.9-1.3-1.3-2.7-1.3-4.2c0-2,0.5-3.6,1.5-4.7
			c1-1.1,2.7-2,5-2.4c2.3-0.5,5.6-0.7,9.6-0.7h2.5v2.9h-2.4c-3,0-5.4,0.1-7.1,0.4c-1.7,0.3-2.9,0.7-3.6,1.4s-1,1.6-1,2.8
			c0,1.5,0.5,2.8,1.6,3.7c1.1,1,2.5,1.4,4.3,1.4c1.5,0,2.8-0.4,3.9-1.1s2-1.7,2.7-2.9c0.6-1.2,1-2.6,1-4.2v-6.3c0-2.3-0.5-3.9-1.4-5
			s-2.4-1.5-4.5-1.5c-1.3,0-2.6,0.2-3.9,0.5c-1.3,0.3-2.7,0.9-4.1,1.6c-0.5,0.3-1,0.3-1.3,0.3c-0.4-0.1-0.7-0.3-0.9-0.6
			c-0.2-0.3-0.4-0.6-0.4-1c0-0.4,0-0.8,0.2-1.1c0.2-0.4,0.5-0.7,1-0.9c1.6-0.8,3.2-1.4,4.8-1.8c1.6-0.4,3.1-0.6,4.5-0.6
			c2.3,0,4.3,0.4,5.8,1.1c1.5,0.8,2.6,1.9,3.4,3.4c0.7,1.5,1.1,3.5,1.1,5.9v15c0,0.7-0.2,1.3-0.5,1.7s-0.9,0.6-1.5,0.6
			c-0.7,0-1.2-0.2-1.6-0.6c-0.4-0.4-0.6-1-0.6-1.7v-4.3h0.5c-0.3,1.4-0.9,2.6-1.7,3.6s-1.9,1.8-3.1,2.3
			C892.8,489,891.4,489.3,889.9,489.3z"/>
		<path d="M920.4,489.3c-2.2,0-4-0.4-5.4-1.2c-1.4-0.8-2.5-2-3.2-3.6c-0.7-1.6-1.1-3.6-1.1-5.9v-14.9c0-0.8,0.2-1.3,0.6-1.7
			c0.4-0.4,0.9-0.6,1.6-0.6c0.7,0,1.3,0.2,1.7,0.6c0.4,0.4,0.6,0.9,0.6,1.7v14.8c0,2.4,0.5,4.1,1.5,5.3c1,1.2,2.5,1.7,4.6,1.7
			c2.3,0,4.2-0.8,5.6-2.3c1.4-1.6,2.2-3.6,2.2-6.1v-13.4c0-0.8,0.2-1.3,0.6-1.7c0.4-0.4,1-0.6,1.7-0.6c0.7,0,1.2,0.2,1.6,0.6
			c0.4,0.4,0.6,0.9,0.6,1.7v23.1c0,1.6-0.7,2.3-2.2,2.3c-0.7,0-1.2-0.2-1.6-0.6c-0.4-0.4-0.6-1-0.6-1.7v-5l0.7,0.8
			c-0.7,2.2-2,3.8-3.6,5C924.5,488.7,922.6,489.3,920.4,489.3z"/>
		<path d="M953.9,499.3c-2,0-3.9-0.2-5.7-0.7c-1.9-0.5-3.6-1.2-5.1-2.2c-0.4-0.3-0.7-0.6-0.9-0.9c-0.1-0.4-0.2-0.7-0.1-1.1
			s0.2-0.7,0.5-0.9s0.6-0.5,0.9-0.5c0.4-0.1,0.7,0,1.1,0.2c1.6,1,3.2,1.7,4.7,2.1c1.5,0.4,2.9,0.6,4.4,0.6c2.6,0,4.6-0.7,6-2.1
			c1.3-1.4,2-3.4,2-6.1v-6.3h0.6c-0.6,2.1-1.7,3.8-3.5,5.1c-1.8,1.3-3.9,1.9-6.3,1.9c-2.5,0-4.6-0.6-6.4-1.7
			c-1.8-1.1-3.2-2.7-4.2-4.7c-1-2-1.5-4.4-1.5-7c0-2,0.3-3.8,0.8-5.5c0.6-1.6,1.4-3,2.4-4.2c1.1-1.2,2.3-2.1,3.8-2.7
			c1.5-0.6,3.2-1,5-1c2.4,0,4.5,0.6,6.3,1.9c1.8,1.2,2.9,2.9,3.4,5l-0.6,0.7v-5.2c0-0.7,0.2-1.3,0.6-1.7c0.4-0.4,0.9-0.6,1.6-0.6
			c0.7,0,1.3,0.2,1.7,0.6c0.4,0.4,0.6,1,0.6,1.7v23.1c0,4.1-1,7.2-3.1,9.3C960.9,498.2,957.9,499.3,953.9,499.3z M953.2,484.5
			c1.7,0,3.2-0.4,4.5-1.2c1.3-0.8,2.2-1.9,2.9-3.4c0.7-1.5,1-3.2,1-5.2c0-3-0.8-5.4-2.3-7.1c-1.5-1.8-3.6-2.6-6.2-2.6
			c-1.7,0-3.2,0.4-4.4,1.2c-1.3,0.8-2.2,1.9-2.9,3.4c-0.7,1.5-1,3.2-1,5.2c0,3,0.8,5.4,2.3,7.2S950.7,484.5,953.2,484.5z"/>
		<path d="M986.6,489.3c-2.8,0-5.3-0.6-7.3-1.7c-2.1-1.1-3.6-2.7-4.8-4.8s-1.7-4.5-1.7-7.4c0-2.8,0.6-5.3,1.7-7.3s2.6-3.7,4.6-4.9
			c1.9-1.2,4.2-1.8,6.7-1.8c1.8,0,3.4,0.3,4.9,0.9c1.4,0.6,2.7,1.5,3.7,2.6c1,1.1,1.8,2.5,2.3,4.2c0.5,1.6,0.8,3.5,0.8,5.5
			c0,0.6-0.2,1-0.5,1.3s-0.8,0.4-1.4,0.4h-19.3v-2.9h18.2l-0.9,0.7c0-2-0.3-3.7-0.9-5.1c-0.6-1.4-1.5-2.4-2.6-3.2
			c-1.1-0.7-2.5-1.1-4.2-1.1c-1.9,0-3.5,0.4-4.8,1.3s-2.3,2.1-3,3.6c-0.7,1.5-1,3.3-1,5.4v0.3c0,3.4,0.8,6,2.5,7.8
			c1.6,1.8,4,2.7,7,2.7c1.3,0,2.5-0.2,3.7-0.5c1.2-0.3,2.4-0.9,3.6-1.7c0.5-0.3,1-0.5,1.4-0.5c0.4,0,0.8,0.1,1,0.4
			c0.3,0.2,0.4,0.5,0.5,0.9c0.1,0.4,0.1,0.7-0.1,1.1s-0.5,0.8-1,1.1c-1.2,0.9-2.7,1.6-4.3,2.1C989.9,489.1,988.2,489.3,986.6,489.3z
			"/>
		<g>
			<path class="st1" d="M1025,469.1c-0.5,0-0.9-0.1-1.3-0.3c-1.1-0.6-2.5-2.1-2.5-6.3c0-8.7-4.6-13.7-4.7-13.8l-0.8-0.8l4.1-4.5
				l0.7,1.1c0.1,0.1,2.2,3.2,5.7,2.3l0.5,2.2c-3.4,0.9-5.8-1-7-2.2l-1,1.2c1.5,1.9,4.6,7,4.6,14.6c0,2.3,0.5,3.8,1.3,4.2
				c0.6,0.3,1.5,0,2.4-0.9c2.2-2.2,3.9-7.8,3.9-7.8l1.9,0.7c-0.1,0.3-1.8,6.2-4.5,8.8C1027.2,468.6,1026.1,469.1,1025,469.1z"/>
			<path class="st1" d="M1058.5,469.1c0.5,0,0.9-0.1,1.3-0.3c1.1-0.6,2.5-2.1,2.5-6.3c0-8.7,4.6-13.7,4.7-13.8l0.8-0.8l-4.1-4.5
				l-0.7,1.1c-0.1,0.1-2.2,3.2-5.7,2.3l-0.5,2.2c3.4,0.9,5.8-1,7-2.2l1,1.2c-1.5,1.9-4.6,7-4.6,14.6c0,2.3-0.5,3.8-1.3,4.2
				c-0.6,0.3-1.5,0-2.4-0.9c-2.2-2.2-3.9-7.8-3.9-7.8l-1.9,0.7c0.1,0.3,1.8,6.2,4.5,8.8C1056.3,468.6,1057.4,469.1,1058.5,469.1z"/>
			<rect x="1039.1" y="463.3" class="st1" width="5.3" height="21.2"/>
			<rect x="1040.2" y="463.3" class="st2" width="3.1" height="21.2"/>
			<path class="st1" d="M1024.3,443.4c1.5,13.3,8.8,24,17.5,24c8.7,0,16-10.7,17.5-24H1024.3z"/>
			<path class="st2" d="M1027.7,443.4c1.2,13.5,7.1,24.3,14.1,24.3c7,0,12.9-10.8,14.1-24.3H1027.7z"/>
			<path class="st1" d="M1055.3,488.5h-27.1c0,0,6.1-7.8,13.6-7.8C1049.3,480.6,1055.3,488.5,1055.3,488.5z"/>
			<path class="st2" d="M1052.1,488.5h-20.6c0,0,4.6-8,10.3-8C1047.5,480.5,1052.1,488.5,1052.1,488.5z"/>
			<rect x="1024.3" y="490.2" class="st3" width="35" height="5.2"/>
			<rect x="1028.2" y="488.5" class="st4" width="27.1" height="1.7"/>
			<rect x="1033.1" y="491.5" class="st1" width="17.3" height="2.6"/>
			<rect x="1024.3" y="490.2" class="st5" width="1.7" height="5.2"/>
			<rect x="1057.5" y="490.2" class="st4" width="1.7" height="5.2"/>
			<rect x="1034" y="491.5" class="st2" width="15.6" height="2.6"/>
		</g>
	</g>
</g>
<g>
	<g>
		<path d="M577.5,529.5c-0.1,0-0.2,0-0.2-0.1c0-0.1-0.1-0.2,0-0.3l1.5-9.7H575c-0.1,0-0.2,0-0.2-0.1c-0.1,0-0.1-0.1-0.1-0.2
			c0-0.1,0-0.2,0.1-0.2s0.2-0.1,0.3-0.1h8.2c0.1,0,0.2,0,0.2,0.1c0.1,0,0.1,0.1,0.1,0.2c0,0.1,0,0.2-0.1,0.3
			c-0.1,0.1-0.2,0.1-0.3,0.1h-3.8l-1.5,9.8c0,0.1,0,0.2-0.1,0.2S577.6,529.5,577.5,529.5z"/>
		<path d="M583.5,529.5c-0.1,0-0.2,0-0.2-0.1c0-0.1-0.1-0.2,0-0.3l1.6-10.1c0-0.1,0.1-0.2,0.1-0.2c0.1,0,0.1-0.1,0.2-0.1
			s0.2,0,0.2,0.1c0,0.1,0.1,0.2,0,0.3l-0.8,4.8h-0.2c0.2-0.6,0.6-1.1,1.1-1.4c0.5-0.3,1.1-0.5,1.8-0.5c0.5,0,1,0.1,1.4,0.3
			s0.6,0.5,0.8,1c0.2,0.4,0.2,1,0.1,1.7l-0.7,4.2c0,0.1,0,0.2-0.1,0.2c-0.1,0.1-0.2,0.1-0.3,0.1c-0.1,0-0.2,0-0.2-0.1
			c0-0.1-0.1-0.2,0-0.3l0.7-4.1c0.1-0.8,0.1-1.4-0.2-1.8c-0.3-0.4-0.7-0.6-1.4-0.6c-0.9,0-1.5,0.3-2,0.8c-0.5,0.5-0.8,1.2-1,2.1
			l-0.6,3.7C583.8,529.4,583.7,529.5,583.5,529.5z"/>
		<path d="M593.8,529.5c-0.4,0-0.8-0.1-1.1-0.3c-0.4-0.2-0.6-0.4-0.9-0.7s-0.3-0.7-0.3-1.1c0-0.5,0.1-0.9,0.4-1.2s0.7-0.5,1.3-0.7
			c0.6-0.1,1.4-0.2,2.4-0.2h1.2l-0.1,0.6h-0.9c-0.9,0-1.7,0-2.2,0.1c-0.5,0.1-0.9,0.3-1.1,0.5c-0.2,0.2-0.3,0.5-0.3,0.9
			c0,0.5,0.2,0.9,0.5,1.2c0.3,0.3,0.7,0.4,1.2,0.4c0.4,0,0.8-0.1,1.1-0.3c0.4-0.2,0.7-0.5,0.9-0.8c0.3-0.4,0.4-0.8,0.5-1.3l0.3-1.9
			c0.1-0.7,0-1.2-0.2-1.5c-0.3-0.3-0.7-0.5-1.4-0.5c-0.4,0-0.8,0-1.1,0.1s-0.7,0.2-1,0.5c-0.1,0.1-0.2,0.1-0.2,0.1
			c-0.1,0-0.1,0-0.2-0.1s-0.1-0.1-0.1-0.1c0-0.1,0-0.1,0-0.2c0-0.1,0.1-0.1,0.2-0.2c0.3-0.2,0.7-0.4,1.2-0.5
			c0.4-0.1,0.9-0.2,1.3-0.2c0.6,0,1.1,0.1,1.4,0.3c0.4,0.2,0.6,0.5,0.8,1c0.1,0.4,0.2,0.9,0.1,1.5l-0.7,4.3c0,0.1,0,0.2-0.1,0.2
			c-0.1,0.1-0.1,0.1-0.2,0.1c-0.1,0-0.2,0-0.2-0.1c0-0.1-0.1-0.2,0-0.3l0.2-1.5h0.1c-0.1,0.4-0.3,0.8-0.6,1
			c-0.3,0.3-0.6,0.5-0.9,0.6C594.5,529.5,594.2,529.5,593.8,529.5z"/>
		<path d="M601.8,529.5c-0.5,0-0.9-0.1-1.2-0.3c-0.3-0.2-0.5-0.5-0.7-0.8c-0.1-0.4-0.2-0.8-0.1-1.3l0.7-4.4h-1.2
			c-0.1,0-0.2,0-0.2-0.1c-0.1,0-0.1-0.1-0.1-0.2c0-0.1,0-0.2,0.1-0.2c0.1,0,0.2-0.1,0.3-0.1h1.2l0.3-2c0-0.1,0.1-0.2,0.1-0.2
			s0.1-0.1,0.2-0.1c0.1,0,0.2,0,0.2,0.1c0,0.1,0.1,0.2,0,0.3l-0.3,2h2.1c0.1,0,0.2,0,0.2,0.1c0.1,0,0.1,0.1,0.1,0.2
			c0,0.1,0,0.2-0.1,0.2c-0.1,0.1-0.2,0.1-0.3,0.1h-2.2l-0.7,4.3c-0.1,0.7,0,1.2,0.2,1.5c0.2,0.3,0.6,0.5,1.2,0.5
			c0.2,0,0.4,0,0.6-0.1c0.1,0,0.2-0.1,0.3-0.1c0.1,0,0.1,0,0.1,0.1c0,0,0.1,0.1,0.1,0.2c0,0.1,0,0.2,0,0.2s-0.1,0.1-0.2,0.1
			c-0.1,0-0.2,0.1-0.4,0.1C602.1,529.5,601.9,529.5,601.8,529.5z"/>
		<path d="M610.2,529.5c-0.5,0-0.9-0.1-1.4-0.2c-0.4-0.1-0.8-0.3-1.1-0.5c-0.1,0-0.1-0.1-0.1-0.2c0-0.1,0-0.1,0-0.2
			c0-0.1,0-0.1,0.1-0.1c0,0,0.1-0.1,0.2-0.1s0.1,0,0.2,0.1c0.3,0.2,0.6,0.4,1,0.5s0.7,0.1,1.1,0.1c0.6,0,1.1-0.1,1.4-0.4
			s0.5-0.6,0.5-1.1c0-0.3-0.1-0.5-0.3-0.7c-0.2-0.2-0.5-0.3-0.8-0.4l-1.5-0.4c-0.4-0.1-0.8-0.3-1.1-0.6c-0.3-0.3-0.4-0.7-0.4-1.1
			c0-0.4,0.1-0.8,0.3-1.1c0.2-0.3,0.5-0.6,1-0.7s0.9-0.3,1.4-0.3c0.4,0,0.9,0.1,1.3,0.2s0.7,0.3,1,0.6c0.1,0.1,0.1,0.1,0.1,0.2
			c0,0.1,0,0.1,0,0.2c0,0.1-0.1,0.1-0.1,0.1c0,0-0.1,0-0.2,0s-0.1,0-0.2-0.1c-0.2-0.2-0.5-0.4-0.9-0.5c-0.3-0.1-0.7-0.2-1-0.2
			c-0.6,0-1.1,0.1-1.5,0.4s-0.6,0.6-0.6,1.1c0,0.3,0.1,0.5,0.3,0.7c0.2,0.2,0.4,0.4,0.8,0.5l1.5,0.4c0.5,0.1,0.8,0.3,1.1,0.6
			c0.3,0.3,0.4,0.6,0.4,1.1c0,0.6-0.2,1.1-0.7,1.5C611.7,529.3,611,529.5,610.2,529.5z"/>
		<path d="M617.4,529.5c-0.5,0-0.9-0.1-1.2-0.3c-0.3-0.2-0.5-0.5-0.7-0.8c-0.1-0.4-0.2-0.8-0.1-1.3l0.7-4.4h-1.2
			c-0.1,0-0.2,0-0.2-0.1c-0.1,0-0.1-0.1-0.1-0.2c0-0.1,0-0.2,0.1-0.2c0.1,0,0.2-0.1,0.3-0.1h1.2l0.3-2c0-0.1,0.1-0.2,0.1-0.2
			s0.1-0.1,0.2-0.1c0.1,0,0.2,0,0.2,0.1c0,0.1,0.1,0.2,0,0.3l-0.3,2h2.1c0.1,0,0.2,0,0.2,0.1c0.1,0,0.1,0.1,0.1,0.2
			c0,0.1,0,0.2-0.1,0.2c-0.1,0.1-0.2,0.1-0.3,0.1h-2.2L616,527c-0.1,0.7,0,1.2,0.2,1.5c0.2,0.3,0.6,0.5,1.2,0.5c0.2,0,0.4,0,0.6-0.1
			c0.1,0,0.2-0.1,0.3-0.1c0.1,0,0.1,0,0.1,0.1c0,0,0.1,0.1,0.1,0.2c0,0.1,0,0.2,0,0.2s-0.1,0.1-0.2,0.1c-0.1,0-0.2,0.1-0.4,0.1
			C617.7,529.5,617.5,529.5,617.4,529.5z"/>
		<path d="M621.9,529.5c-0.4,0-0.8-0.1-1.1-0.3c-0.4-0.2-0.6-0.4-0.9-0.7s-0.3-0.7-0.3-1.1c0-0.5,0.1-0.9,0.4-1.2s0.7-0.5,1.3-0.7
			c0.6-0.1,1.4-0.2,2.4-0.2h1.2l-0.1,0.6h-0.9c-0.9,0-1.7,0-2.2,0.1c-0.5,0.1-0.9,0.3-1.1,0.5c-0.2,0.2-0.3,0.5-0.3,0.9
			c0,0.5,0.2,0.9,0.5,1.2c0.3,0.3,0.7,0.4,1.2,0.4c0.4,0,0.8-0.1,1.1-0.3c0.4-0.2,0.7-0.5,0.9-0.8c0.3-0.4,0.4-0.8,0.5-1.3l0.3-1.9
			c0.1-0.7,0-1.2-0.2-1.5c-0.3-0.3-0.7-0.5-1.4-0.5c-0.4,0-0.8,0-1.1,0.1s-0.7,0.2-1,0.5c-0.1,0.1-0.2,0.1-0.2,0.1
			c-0.1,0-0.1,0-0.2-0.1s-0.1-0.1-0.1-0.1c0-0.1,0-0.1,0-0.2c0-0.1,0.1-0.1,0.2-0.2c0.3-0.2,0.7-0.4,1.2-0.5
			c0.4-0.1,0.9-0.2,1.3-0.2c0.6,0,1.1,0.1,1.4,0.3c0.4,0.2,0.6,0.5,0.8,1c0.1,0.4,0.2,0.9,0.1,1.5l-0.7,4.3c0,0.1,0,0.2-0.1,0.2
			c-0.1,0.1-0.1,0.1-0.2,0.1c-0.1,0-0.2,0-0.2-0.1c0-0.1-0.1-0.2,0-0.3l0.2-1.5h0.1c-0.1,0.4-0.3,0.8-0.6,1
			c-0.3,0.3-0.6,0.5-0.9,0.6C622.6,529.5,622.3,529.5,621.9,529.5z"/>
		<path d="M627.6,529.5c-0.1,0-0.2,0-0.2-0.1c0-0.1-0.1-0.2,0-0.3l1.1-6.7c0-0.1,0.1-0.2,0.1-0.2c0.1,0,0.1-0.1,0.2-0.1
			c0.1,0,0.2,0,0.2,0.1c0,0.1,0.1,0.2,0,0.3l-0.2,1.4h-0.2c0.2-0.6,0.6-1.1,1.1-1.4c0.5-0.3,1.1-0.5,1.7-0.5c0.2,0,0.3,0,0.4,0.1
			s0.1,0.1,0.1,0.2s0,0.2-0.1,0.2c-0.1,0-0.1,0.1-0.3,0.1l-0.2,0c-0.9,0.1-1.6,0.3-2,0.8c-0.4,0.5-0.7,1.1-0.8,1.8l-0.6,4
			c0,0.1,0,0.2-0.1,0.2C627.8,529.5,627.7,529.5,627.6,529.5z"/>
		<path d="M634.7,529.5c-0.5,0-0.9-0.1-1.2-0.3c-0.3-0.2-0.5-0.5-0.7-0.8c-0.1-0.4-0.2-0.8-0.1-1.3l0.7-4.4h-1.2
			c-0.1,0-0.2,0-0.2-0.1c-0.1,0-0.1-0.1-0.1-0.2c0-0.1,0-0.2,0.1-0.2c0.1,0,0.2-0.1,0.3-0.1h1.2l0.3-2c0-0.1,0.1-0.2,0.1-0.2
			s0.1-0.1,0.2-0.1c0.1,0,0.2,0,0.2,0.1c0,0.1,0.1,0.2,0,0.3l-0.3,2h2.1c0.1,0,0.2,0,0.2,0.1c0.1,0,0.1,0.1,0.1,0.2
			c0,0.1,0,0.2-0.1,0.2c-0.1,0.1-0.2,0.1-0.3,0.1h-2.2l-0.7,4.3c-0.1,0.7,0,1.2,0.2,1.5c0.2,0.3,0.6,0.5,1.2,0.5
			c0.2,0,0.4,0,0.6-0.1c0.1,0,0.2-0.1,0.3-0.1c0.1,0,0.1,0,0.1,0.1c0,0,0.1,0.1,0.1,0.2c0,0.1,0,0.2,0,0.2s-0.1,0.1-0.2,0.1
			c-0.1,0-0.2,0.1-0.4,0.1C635.1,529.5,634.9,529.5,634.7,529.5z"/>
		<path d="M642.9,529.5c-0.1,0-0.2,0-0.3-0.1c-0.1-0.1-0.1-0.2-0.2-0.3l-1.2-6.5c0-0.1,0-0.2,0-0.3c0-0.1,0-0.1,0.1-0.2
			s0.1-0.1,0.2-0.1c0.1,0,0.2,0,0.2,0.1s0.1,0.1,0.1,0.2l1.3,6.8h-0.4l3.5-6.8c0.1-0.1,0.1-0.2,0.2-0.2c0.1,0,0.2-0.1,0.3-0.1
			c0.1,0,0.2,0,0.3,0.1c0.1,0.1,0.1,0.2,0.2,0.3l1.3,6.8H648l3.5-6.9c0-0.1,0.1-0.1,0.1-0.2s0.1-0.1,0.2-0.1c0.1,0,0.2,0,0.2,0.1
			s0.1,0.1,0.1,0.2c0,0.1,0,0.1-0.1,0.2l-3.4,6.7c0,0.1-0.1,0.2-0.2,0.2s-0.2,0.1-0.3,0.1s-0.2,0-0.3-0.1c-0.1-0.1-0.1-0.2-0.2-0.3
			l-1.3-6.5h0.2l-3.4,6.5c-0.1,0.1-0.1,0.2-0.2,0.2S643,529.5,642.9,529.5z"/>
		<path d="M653.4,529.5c-0.1,0-0.2,0-0.2-0.1c0-0.1-0.1-0.2,0-0.3l1.1-6.7c0-0.1,0.1-0.2,0.1-0.2c0.1,0,0.1-0.1,0.2-0.1
			s0.2,0,0.2,0.1c0,0.1,0.1,0.2,0,0.3l-1.1,6.7c0,0.1,0,0.2-0.1,0.2C653.6,529.5,653.5,529.5,653.4,529.5z M654.9,520.2
			c-0.1,0-0.2,0-0.3-0.1s-0.1-0.2-0.1-0.3c0-0.2,0.1-0.4,0.2-0.5c0.1-0.1,0.3-0.2,0.4-0.2c0.1,0,0.3,0,0.3,0.1
			c0.1,0.1,0.1,0.2,0.1,0.3c0,0.2-0.1,0.3-0.2,0.4C655.2,520.1,655,520.2,654.9,520.2z"/>
		<path d="M658.8,529.5c-0.5,0-0.9-0.1-1.2-0.3c-0.3-0.2-0.5-0.5-0.7-0.8c-0.1-0.4-0.2-0.8-0.1-1.3l0.7-4.4h-1.2
			c-0.1,0-0.2,0-0.2-0.1s-0.1-0.1-0.1-0.2c0-0.1,0-0.2,0.1-0.2c0.1,0,0.2-0.1,0.3-0.1h1.2l0.3-2c0-0.1,0.1-0.2,0.1-0.2
			c0.1,0,0.1-0.1,0.2-0.1s0.2,0,0.2,0.1c0,0.1,0.1,0.2,0,0.3l-0.3,2h2.1c0.1,0,0.2,0,0.2,0.1c0.1,0,0.1,0.1,0.1,0.2
			c0,0.1,0,0.2-0.1,0.2c-0.1,0.1-0.2,0.1-0.3,0.1h-2.2l-0.7,4.3c-0.1,0.7,0,1.2,0.2,1.5s0.6,0.5,1.2,0.5c0.2,0,0.4,0,0.6-0.1
			s0.2-0.1,0.3-0.1c0.1,0,0.1,0,0.1,0.1c0,0,0.1,0.1,0.1,0.2c0,0.1,0,0.2,0,0.2c0,0.1-0.1,0.1-0.2,0.1c-0.1,0-0.2,0.1-0.4,0.1
			C659.1,529.5,659,529.5,658.8,529.5z"/>
		<path d="M661.3,529.5c-0.1,0-0.2,0-0.2-0.1c0-0.1-0.1-0.2,0-0.3l1.6-10.1c0-0.1,0.1-0.2,0.1-0.2c0.1,0,0.1-0.1,0.2-0.1
			s0.2,0,0.2,0.1c0,0.1,0.1,0.2,0,0.3l-0.8,4.8h-0.2c0.3-0.6,0.6-1.1,1.1-1.4c0.5-0.3,1.1-0.5,1.8-0.5c0.5,0,1,0.1,1.4,0.3
			c0.4,0.2,0.6,0.5,0.8,1c0.2,0.4,0.2,1,0.1,1.7l-0.7,4.2c0,0.1,0,0.2-0.1,0.2c-0.1,0.1-0.2,0.1-0.3,0.1c-0.1,0-0.2,0-0.2-0.1
			c0-0.1-0.1-0.2,0-0.3l0.7-4.1c0.1-0.8,0.1-1.4-0.2-1.8c-0.3-0.4-0.7-0.6-1.4-0.6c-0.9,0-1.5,0.3-2,0.8c-0.5,0.5-0.8,1.2-1,2.1
			l-0.6,3.7C661.7,529.4,661.6,529.5,661.3,529.5z"/>
		<path d="M677.2,529.5c-0.7,0-1.2-0.1-1.7-0.3s-0.9-0.5-1.2-0.8c-0.3-0.4-0.5-0.8-0.6-1.4c-0.1-0.6-0.1-1.2,0-1.9l1-6
			c0-0.1,0.1-0.2,0.1-0.2c0.1,0,0.1-0.1,0.2-0.1c0.1,0,0.2,0,0.2,0.1c0,0.1,0.1,0.2,0,0.3l-1,6.1c-0.2,1.3-0.1,2.2,0.4,2.8
			s1.3,0.9,2.4,0.9c1.1,0,2-0.3,2.7-0.8c0.6-0.6,1.1-1.5,1.3-2.7l1-6.3c0-0.1,0.1-0.2,0.1-0.2c0.1,0,0.1-0.1,0.2-0.1
			c0.1,0,0.2,0,0.2,0.1c0,0.1,0.1,0.2,0,0.3l-1,6.4c-0.1,0.9-0.4,1.6-0.8,2.2c-0.4,0.6-0.9,1-1.5,1.3
			C678.9,529.4,678.1,529.5,677.2,529.5z"/>
		<path d="M686,529.5c-0.1,0-0.2,0-0.3-0.1c-0.1-0.1-0.1-0.2-0.2-0.3l-1.2-6.5c0-0.1,0-0.2,0-0.3c0-0.1,0-0.1,0.1-0.2
			s0.1-0.1,0.2-0.1c0.1,0,0.2,0,0.2,0.1s0.1,0.1,0.1,0.2l1.3,6.8h-0.4l3.5-6.8c0.1-0.1,0.1-0.2,0.2-0.2c0.1,0,0.2-0.1,0.3-0.1
			c0.1,0,0.2,0,0.3,0.1c0.1,0.1,0.1,0.2,0.2,0.3l1.3,6.8h-0.4l3.5-6.9c0-0.1,0.1-0.1,0.1-0.2s0.1-0.1,0.2-0.1c0.1,0,0.2,0,0.2,0.1
			s0.1,0.1,0.1,0.2c0,0.1,0,0.1-0.1,0.2l-3.4,6.7c0,0.1-0.1,0.2-0.2,0.2s-0.2,0.1-0.3,0.1s-0.2,0-0.3-0.1c-0.1-0.1-0.1-0.2-0.2-0.3
			l-1.3-6.5h0.2l-3.4,6.5c-0.1,0.1-0.1,0.2-0.2,0.2S686.1,529.5,686,529.5z"/>
		<path d="M700.5,529.5c-0.7,0-1.2-0.1-1.7-0.3s-0.9-0.5-1.2-0.8c-0.3-0.4-0.5-0.8-0.6-1.4c-0.1-0.6-0.1-1.2,0-1.9l1-6
			c0-0.1,0.1-0.2,0.1-0.2c0.1,0,0.1-0.1,0.2-0.1s0.2,0,0.2,0.1c0,0.1,0.1,0.2,0,0.3l-1,6.1c-0.2,1.3-0.1,2.2,0.4,2.8
			s1.3,0.9,2.4,0.9c1.1,0,2-0.3,2.7-0.8c0.6-0.6,1.1-1.5,1.3-2.7l1-6.3c0-0.1,0.1-0.2,0.1-0.2c0.1,0,0.1-0.1,0.2-0.1s0.2,0,0.2,0.1
			c0,0.1,0.1,0.2,0,0.3l-1,6.4c-0.1,0.9-0.4,1.6-0.8,2.2c-0.4,0.6-0.9,1-1.5,1.3C702.1,529.4,701.3,529.5,700.5,529.5z"/>
	</g>
</g>
<line class="st6" x1="341.9" y1="416" x2="938.1" y2="416"/>
</svg>
