<?xml version="1.0" encoding="utf-8"?>
<svg version="1.1" id="Layer_1" xmlns="http://www.w3.org/2000/svg" xmlns:xlink="http://www.w3.org/1999/xlink" x="0px" y="0px"
	 viewBox="0 0 1024 1024" style="enable-background:new 0 0 1024 1024;" xml:space="preserve">
<style type="text/css">
	.st0{fill:#FFA4A4;}
</style>
<g>
	<g>
		<path d="M284.8,284.4c-13.5,4.6-19.8,17.1-16.9,30.7c5.1,23.5,7.7,40.7,9.7,64.7c1.9,22.6,2.3,45.3,1.4,67.9
			c-0.9,21.8-2.2,39.1-6.4,59.7c-0.9,4.5-2,9-3.2,13.5c-0.6,2.2-1.3,4.4-2,6.6c-0.1,0.3-1.5,4.3-1.5,4.3c-1.5,3.6-3.2,7.1-5.1,10.5
			c-1.1,1.9-2.3,3.8-3.5,5.7c-0.1,0.2-0.2,0.3-0.3,0.4c-0.9,1.1-1.8,2.2-2.7,3.3c-1,1.1-2,2.2-3.1,3.3c-0.2,0.2-3.2,2.9-3.3,3.1
			c-2.8,2.1-5.8,3.9-8.9,5.5c0.7-0.4-3.7,1.6-4.2,1.8c-2.2,0.8-4.5,1.4-6.8,2c-0.4,0.1-5.2,1-4.6,1c-2.5,0.3-5.1,0.4-7.6,0.5
			c-2.4,0-4.7-0.1-7.1-0.2c-0.7,0-1.2,0-1.6,0c-0.4-0.1-0.9-0.2-1.5-0.3c-4.7-1-9.2-2.1-13.8-3.5c-0.6-0.2-1-0.3-1.3-0.4
			c-0.3-0.2-0.7-0.4-1.3-0.7c-2-1-4.1-2-6.2-3.1c-2-1.1-4-2.2-5.9-3.5c-1.2-0.8-2.4-1.6-3.6-2.4c-0.2-0.2-0.4-0.3-0.7-0.5
			c-6.1-5-11.9-10.4-17.1-16.4c-0.4-0.6-2.6-3.3-2.8-3.5c-1.4-1.9-2.7-3.8-4-5.7c-3.3-5-6.2-10.2-8.9-15.6c0.1,0.3-2.3-5.1-2.3-5
			c-0.9-2.2-1.8-4.4-2.6-6.7c-1.9-5.2-3.6-10.5-5.1-15.8c-2.8-10-5.7-24.5-6.6-31.3c-3.1-23.7-4-47.5-2.4-71.3
			c0.2-2.6,0.4-5.3,0.6-7.9c0.1-0.8,0.7-7.1,0.7-7.3c0.7-5.9,1.7-11.9,2.7-17.8c2.2-12.2,5-24.2,8.4-36.1c3.5-12.5-5.2-27.4-18-30
			c-13.5-2.8-26.3,4.7-30,18c-13.4,47.3-18,97.7-12.3,146.7c5.8,50.3,21,102.6,60.2,137.3c37.2,32.9,94.6,45.1,138,16.1
			c42.2-28.2,50.8-80.4,55.2-127.2c5.4-58,1.1-116.5-11.1-173.4C312.8,288.5,296.9,280.3,284.8,284.4z"/>
		<path d="M721,289.5c13.5,4.6,19.8,17.1,16.9,30.7c-5.1,23.5-7.7,40.7-9.7,64.7c-1.9,22.6-2.3,45.3-1.4,67.9
			c0.9,21.8,2.2,39.1,6.4,59.7c0.9,4.5,2,9,3.2,13.5c0.6,2.2,1.3,4.4,2,6.6c0.1,0.3,1.5,4.3,1.5,4.3c1.5,3.6,3.2,7.1,5.1,10.5
			c1.1,1.9,2.3,3.8,3.5,5.7c0.1,0.2,0.2,0.3,0.3,0.4c0.9,1.1,1.8,2.2,2.7,3.3c1,1.1,2,2.2,3.1,3.3c0.2,0.2,3.2,2.9,3.3,3.1
			c2.8,2.1,5.8,3.9,8.9,5.5c-0.7-0.4,3.7,1.6,4.2,1.8c2.2,0.8,4.5,1.4,6.8,2c0.4,0.1,5.2,1,4.6,1c2.5,0.3,5.1,0.4,7.6,0.5
			c2.4,0,4.7-0.1,7.1-0.2c0.7,0,1.2,0,1.6,0c0.4-0.1,0.9-0.2,1.5-0.3c4.7-1,9.2-2.1,13.8-3.5c0.6-0.2,1-0.3,1.3-0.4
			c0.3-0.2,0.7-0.4,1.3-0.7c2-1,4.1-2,6.2-3.1c2-1.1,4-2.2,5.9-3.5c1.2-0.8,2.4-1.6,3.6-2.4c0.2-0.2,0.4-0.3,0.7-0.5
			c6.1-5,11.9-10.4,17.1-16.4c0.4-0.6,2.6-3.3,2.8-3.5c1.4-1.9,2.7-3.8,4-5.7c3.3-5,6.2-10.2,8.9-15.6c-0.1,0.3,2.3-5.1,2.3-5
			c0.9-2.2,1.8-4.4,2.6-6.7c1.9-5.2,3.6-10.5,5.1-15.8c2.8-10,5.7-24.5,6.6-31.3c3.1-23.7,4-47.5,2.4-71.3c-0.2-2.6-0.4-5.3-0.6-7.9
			c-0.1-0.8-0.7-7.1-0.7-7.3c-0.7-5.9-1.7-11.9-2.7-17.8c-2.2-12.2-5-24.2-8.4-36.1c-3.5-12.5,5.2-27.4,18-30
			c13.5-2.8,26.3,4.7,30,18c13.4,47.3,18,97.7,12.3,146.7c-5.8,50.3-21,102.6-60.2,137.3c-37.2,32.9-94.6,45.1-138,16.1
			c-42.2-28.2-50.8-80.4-55.2-127.2c-5.4-58-1.1-116.5,11.1-173.4C693.1,293.7,709,285.4,721,289.5z"/>
		<path d="M605.2,545.2c-12.7-2.4-27.2,4.3-30,18c-2.6,12.5,4.4,27.5,18,30c1.5,0.3,2.8,0.6,4.2,1c-1.8-0.4,2.1,1,3,1.6
			c0.3,0.1,0.5,0.3,0.7,0.3c0.2,0.2,0.4,0.5,0.6,0.8c0.2,0.3,1.3,1.5,2.1,2.2c0.6,0.9,1.4,2,1.6,2.2c0.6,1,1.1,2.2,1.4,2.8
			c0.4,1.5,0.8,3,1.3,4.3c-1.7-4.5,0-0.5,0.1,1.8c0,0.3,0,1.9,0,3.1c-0.2,1.1-0.7,4.1-0.9,4.6c-0.3,1.2-0.6,2.3-1,3.5
			c-0.2,0.2-1.6,3.2-1.9,3.9c-0.8,1.5-1.7,2.9-2.6,4.3c-0.1,0-2.1,2.4-2.7,3.1c-1.3,1.4-2.7,2.7-4.1,4c-0.1,0.1-0.2,0.2-0.3,0.2
			c-0.9,0.7-1.8,1.3-2.7,1.9c-1.7,1.2-3.5,2.3-5.3,3.3c-0.1,0.1-4.7,2.3-4.3,2.2c-3.9,1.6-7.9,2.8-11.9,3.9
			c-2.5,0.6-4.9,1.2-7.4,1.7c-0.6,0.1-0.8,0.2-0.8,0.2c-0.3,0-0.7,0.1-1.2,0.1c-5,0.5-9.8,0.6-14.8,0.5c-1,0-1.5,0-1.7,0
			c-0.3-0.1-0.8-0.2-1.6-0.4c-2-0.5-4-0.8-5.9-1.4c-0.7-0.2-1.4-0.5-2.2-0.7c-0.1-0.1-0.4-0.2-1-0.5c-1.3-0.7-2.6-1.4-3.8-2.1
			c0.2-0.1-3.2-2.7-3.4-2.9c-0.5-0.5-0.9-0.8-1.1-1c-0.1-0.3-0.4-0.7-0.7-1.2c-0.4-0.7-1.4-3.2-1.8-3.8c-0.4-2-0.8-4.5-0.5-0.7
			c-1.3-12.8-11-25.2-25.1-24.4c-13.9,0.8-24,11.2-24.4,25.1c0,0.1,0,0.2,0,0.3c-0.4,0.8-0.6,1.7-0.8,2.7c-0.2,0.6-0.5,1.3-0.8,1.7
			c-0.4,0.6-0.7,1.1-0.9,1.4c-0.9,1-1.9,2-2.9,3.1c-1.4,0.9-2.9,1.9-4.3,2.8c-0.1,0.1-0.2,0.1-0.3,0.2c-1.4,0.5-2.9,0.9-4.3,1.4
			c-0.2,0.1-0.3,0.1-0.5,0.2c-1.4,0.1-2.9,0.1-4.3,0.2c-0.1,0-0.1,0-0.2,0c-1.8-0.5-3.6-0.8-5.5-1.3c0,0-0.1,0-0.1,0
			c-1.7-1-3.5-1.9-5.3-2.8c-0.3-0.2-0.5-0.3-0.7-0.4c0,0-0.1-0.1-0.1-0.1c-1.2-1.2-2.7-2.3-3.9-3.5c-0.2-0.2-1.1-1.1-1.8-1.9
			c-0.6-0.8-2.2-2.8-2.2-2.8c-1-1.5-1.9-3-2.7-4.5c-0.7-1.2-2.2-5.6-0.5-0.6c-0.6-1.7-1.2-3.3-1.7-5c-0.6-1.9-1-3.7-1.4-5.6
			c-0.1-0.4-0.2-0.8-0.3-1c0-0.1,0.1-0.3,0.1-0.6c0.2-3.9-0.3-7.9,0-11.9c0-0.4,0-0.6,0-0.7c0.1-0.3,0.2-0.7,0.3-1.2
			c0.4-2,0.8-3.9,1.2-5.9c0.5-1.9,1-3.9,1.6-5.8c0.1-0.3,1-2.8,1.4-3.9c0.5-1.1,1.5-3.3,1.6-3.6c1-2.2,2.2-4.3,3.4-6.4
			c6.3-11.3,2.2-27.7-9.8-33.6c-12.1-6-26.9-2.3-33.6,9.8c-12.7,22.8-18.3,48.2-14.3,74c3.8,24.1,18.4,45,38.7,58.1
			c26.1,16.8,58.7,12.3,80.4-5.5c9.7,7.7,21.5,13,34.6,15.1c29,4.7,62.7-1.9,86.7-19.3c22.8-16.5,40.4-44.1,37.5-73.3
			C654.4,577.7,634.7,550.7,605.2,545.2z"/>
	</g>
	<g>
		<path class="st0" d="M268.5,678.3c-4.6-7.2-13.7-9.8-21.3-5.6c-9.5,5.3-19,10.6-28.4,15.8c0.2-3.2,0.1-6.5-0.5-9.8
			c-2.3-14.6-15.2-25-30-23c-13.9,1.9-24.5,12.7-35,21c-2.2,1.8-4.5,3.6-6.7,5.4c-0.1-4.5-0.3-9-0.4-13.5c-0.2-7.5-0.8-15-5.1-21.5
			c-5-7.6-13.6-11.7-22.7-11.4c-7.7,0.3-14.7,3.4-21.5,6.8c-6.7,3.4-13.4,6.7-20.2,10.1c-3.2,1.6-6.5,3.3-9.7,4.9
			c2-8.4,3.9-16.7,5.9-25.1c1.9-7.9-2.5-17.2-10.9-19.1c-8-1.8-17.2,2.4-19.1,10.9c-4.5,19.3-9.1,38.7-13.6,58
			C26.1,696.1,40,706.1,52.1,700c11.2-5.6,22.4-11.2,33.6-16.9l16.8-8.4c2.8-1.4,5.6-2.8,8.4-4.2c1.3-0.7,2.6-1.3,4-2c0,0,0,0,0.1,0
			c0.1,2.3,0.1,4.5,0.2,6.8c0.4,12.8,0.8,25.5,1.2,38.3c0.2,6.3,3.7,11.8,9.6,14.2c6.2,2.6,11.9,0.8,17-3.2l26.4-21
			c4.4-3.5,8.8-7,13.2-10.5c1.2-1,2.4-1.9,3.7-2.9c0.2-0.1,0.3-0.2,0.4-0.3c0.2-0.1,0.4-0.3,0.7-0.5c-3.1,11.3-3.9,23.4,1.7,34
			c4,7.5,14.2,9.5,21.3,5.6c17.5-9.7,34.9-19.5,52.4-29.2C270,695.7,273,685.3,268.5,678.3z"/>
		<path class="st0" d="M755.5,678.3c4.6-7.2,13.7-9.8,21.3-5.6c9.5,5.3,19,10.6,28.4,15.8c-0.2-3.2-0.1-6.5,0.5-9.8
			c2.3-14.6,15.2-25,30-23c13.9,1.9,24.5,12.7,35,21c2.2,1.8,4.5,3.6,6.7,5.4c0.1-4.5,0.3-9,0.4-13.5c0.2-7.5,0.8-15,5.1-21.5
			c5-7.6,13.6-11.7,22.7-11.4c7.7,0.3,14.7,3.4,21.5,6.8c6.7,3.4,13.4,6.7,20.2,10.1c3.2,1.6,6.5,3.3,9.7,4.9
			c-2-8.4-3.9-16.7-5.9-25.1c-1.9-7.9,2.5-17.2,10.9-19.1c8-1.8,17.2,2.4,19.1,10.9c4.5,19.3,9.1,38.7,13.6,58
			c3.2,13.7-10.7,23.7-22.9,17.6c-11.2-5.6-22.4-11.2-33.6-16.9l-16.8-8.4c-2.8-1.4-5.6-2.8-8.4-4.2c-1.3-0.7-2.6-1.3-4-2
			c0,0,0,0-0.1,0c-0.1,2.3-0.1,4.5-0.2,6.8c-0.4,12.8-0.8,25.5-1.2,38.3c-0.2,6.3-3.7,11.8-9.6,14.2c-6.2,2.6-11.9,0.8-17-3.2
			l-26.4-21c-4.4-3.5-8.8-7-13.2-10.5c-1.2-1-2.4-1.9-3.7-2.9c-0.2-0.1-0.3-0.2-0.4-0.3c-0.2-0.1-0.4-0.3-0.7-0.5
			c3.1,11.3,3.9,23.4-1.7,34c-4,7.5-14.2,9.5-21.3,5.6c-17.5-9.7-34.9-19.5-52.4-29.2C754,695.7,751,685.3,755.5,678.3z"/>
	</g>
</g>
</svg>
